<svg width="48" height="120" viewBox="0 0 48 120" fill="none" xmlns="http://www.w3.org/2000/svg">
<path d="M17.7623 33.5215L27.0535 30.0839C39.6424 25.4263 48 13.4228 48 -3.78658e-05V120C48 105.91 39.4266 93.2369 26.3477 87.9947L17.081 84.2805C6.76334 80.1451 0 70.1479 0 59.0323C0 47.6498 7.08715 37.4711 17.7623 33.5215Z" fill="white"/>
<path d="M18 59C17.4477 59 17 59.4477 17 60C17 60.5523 17.4477 61 18 61H26.3787C26.8241 61 27.0472 61.5386 26.7322 61.8536L23.2929 65.2929C22.9024 65.6834 22.9024 66.3166 23.2929 66.7071C23.6834 67.0976 24.3166 67.0976 24.7071 66.7071L30.7071 60.7071C31.0976 60.3166 31.0976 59.6834 30.7071 59.2929L24.7071 53.2929C24.3166 52.9024 23.6834 52.9024 23.2929 53.2929C22.9024 53.6834 22.9024 54.3166 23.2929 54.7071L26.7322 58.1464C27.047 58.4614 26.8241 59 26.3787 59L18 59Z" fill="#404040"/>
</svg>
