<svg width="48" height="120" viewBox="0 0 48 120" fill="none" xmlns="http://www.w3.org/2000/svg">
<path d="M30.2377 33.5215L20.9465 30.084C8.35762 25.4263 0 13.4229 0 0V120C0 105.91 8.57337 93.2369 21.6523 87.9947L30.919 84.2805C41.2367 80.1451 48 70.1479 48 59.0323C48 47.6499 40.9129 37.4711 30.2377 33.5215Z" fill="white"/>
<path d="M30 59C30.5523 59 31 59.4477 31 60C31 60.5523 30.5523 61 30 61H21.6213C21.1759 61 20.9528 61.5386 21.2678 61.8536L24.7071 65.2929C25.0976 65.6834 25.0976 66.3166 24.7071 66.7071C24.3166 67.0976 23.6834 67.0976 23.2929 66.7071L17.2929 60.7071C16.9024 60.3166 16.9024 59.6834 17.2929 59.2929L23.2929 53.2929C23.6834 52.9024 24.3166 52.9024 24.7071 53.2929C25.0976 53.6834 25.0976 54.3166 24.7071 54.7071L21.2678 58.1464C20.953 58.4614 21.1759 59 21.6213 59L30 59Z" fill="#404040"/>
</svg>
