<?xml version="1.0" standalone="no"?>
<!DOCTYPE svg PUBLIC "-//W3C//DTD SVG 1.1//EN" "http://www.w3.org/Graphics/SVG/1.1/DTD/svg11.dtd">
<svg xmlns="http://www.w3.org/2000/svg">
<metadata>Yaraslava Grebenschikova</metadata>
<defs>
<font id="yarascrift" horiz-adv-x="1000" >
<font-face font-family="yarascrift" font-weight="400" font-stretch="normal" units-per-em="1000" ascent="850" descent="-150" />
<missing-glyph horiz-adv-x="1000" />
<glyph glyph-name="accept" unicode="&#xe800;" d="M502-148a496 496 0 0 0-350 847 496 496 0 1 0 700-701 492 492 0 0 0-350-146z m0 932c-240 0-436-196-436-436s196-436 436-436 436 196 436 436-196 436-436 436z m-26-717a30 30 0 0 0-20 8l-218 201a30 30 0 1 0 40 44l191-176 266 454a30 30 0 0 0 52-30l-285-486a30 30 0 0 0-26-15z" horiz-adv-x="1000" />

<glyph glyph-name="degree" unicode="&#xe801;" d="M507-148a493 493 0 0 0-349 841 493 493 0 1 0 697-696 489 489 0 0 0-348-145z m0 925c-239 0-433-194-433-432s194-433 433-433 432 195 432 433-194 432-432 432z m178-655a30 30 0 0 0-22 9l-167 176-168-176a30 30 0 0 0-43 42l169 177-180 189a30 30 0 1 0 44 42l178-187 177 187a30 30 0 0 0 44-42l-180-188 169-178a30 30 0 0 0-21-51z" horiz-adv-x="1000" />

<glyph glyph-name="wine" unicode="&#xe802;" d="M704-154h-432a30 30 0 0 0-30 30v538a30 30 0 0 0 18 27l162 72v169h-6a30 30 0 0 0-30 30v100a30 30 0 0 0 30 30h162a30 30 0 0 0 30-30v-100a30 30 0 0 0-30-30h-6v-170l145-69a30 30 0 0 0 17-27v-540a30 30 0 0 0-30-30z m-402 60h372v120h-372z m0 180h372v192h-372z m0 252h372v59l-145 69a30 30 0 0 0-17 27v189h-30v-189a30 30 0 0 0-18-27l-162-72z m144 404h102v40h-102z" horiz-adv-x="1000" />

<glyph glyph-name="wineglass" unicode="&#xe803;" d="M644-132h-371a30 30 0 1 0 0 60h165v302c-110 11-207 86-252 197-52 129-26 286 64 391a30 30 0 0 0 23 10h410a30 30 0 0 0 24-12c81-110 98-263 43-390h0c-26-59-66-109-116-144a291 291 0 0 0-136-52v-302h146a30 30 0 0 0 0-60z m-417 630a306 306 0 0 1 15-49c39-98 128-161 226-161h0c95 0 184 64 227 162a327 327 0 0 1 17 50 29 29 0 0 0-5 2c-63 38-122 52-174 42-29-6-51-18-74-31-28-15-59-33-105-37-42-4-85 3-127 22z m495-60h0z m-503 132c44-27 88-39 129-35 33 4 56 16 82 31 25 13 53 29 91 36 63 13 130 0 201-39 4 72-15 145-54 205h-381c-44-55-67-126-68-198z" horiz-adv-x="1000" />

<glyph glyph-name="wood-floor" unicode="&#xe804;" d="M191-143a30 30 0 0 0-22 9l-148 149a30 30 0 0 0 42 42l60-60 107 108-203 204a30 30 0 0 0 0 42l130 131-136 136a30 30 0 0 0 0 42l153 153a30 30 0 0 0 42 0l123-123 141 141a30 30 0 0 0 42-42l-131-132 326-326 132 131a30 30 0 0 0 42-42l-141-141 213-213a30 30 0 0 0 0-42l-152-153a30 30 0 0 0-43 0l-145 145a30 30 0 0 0-4 3l-98 98-110-110 98-98a30 30 0 0 0-43-43l-118 119a30 30 0 0 0-6 8l-69 69-108-107 47-46a30 30 0 0 0-21-52z m357 319l241-241 111 110-327 327-110-110 80-80a31 31 0 0 0 5-6z m-458 154l279-279 110 109-80 80a30 30 0 0 0-4 5 30 30 0 0 0-5 4l-190 190z m125 179a30 30 0 0 0 7-5l190-191 110 110-327 327-110-111z" horiz-adv-x="1000" />

<glyph glyph-name="work-table" unicode="&#xe805;" d="M856-138h-720a30 30 0 0 0-30 30v419h-42a30 30 0 0 0-30 30v93a30 30 0 0 0 30 30h146l-49 168a30 30 0 0 0 12 33l157 108c12 20 40 55 88 65 63 12 129-25 159-92a30 30 0 0 0-7-35l-144-131a30 30 0 0 0-37-2 165 165 0 0 0-71 114l-93-64 47-164h656a30 30 0 0 0 30-30v-93a30 30 0 0 0-30-30h-42v-419a30 30 0 0 0-30-30z m-690 60h660v389h-660z m690 449h42v33h-804v-33z m-476 369a109 109 0 0 1 1-54 105 105 0 0 1 24-44l107 97c-21 30-53 46-82 40-27-6-43-28-50-39z" horiz-adv-x="1000" />

<glyph glyph-name="xerox" unicode="&#xe806;" d="M854 156h-774a30 30 0 0 0-30 30v288a30 30 0 0 0 30 30h846a30 30 0 0 0 0-60h-816v-228h744c30 1 55 21 61 48 6 31-15 63-47 72h-698a30 30 0 0 0 0 60h702a30 30 0 0 0 7-1c66-15 108-80 95-143-11-54-61-94-119-96z" horiz-adv-x="1000" />

<glyph glyph-name="account" unicode="&#xe807;" d="M502-142c-181 0-402 40-444 155-19 51-3 122 44 193 37 57 90 109 150 147 70 44 147 70 225 74 82 5 166-14 241-55a517 517 0 0 0 168-143c59-79 83-159 63-216h0c-17-51-72-91-163-118-75-23-171-36-272-37-4 0-8 0-12 0z m0 510c-7 0-14 0-21-1-155-8-274-110-329-193-35-54-50-108-38-140 13-34 60-64 134-85 73-21 167-31 266-31 95 1 185 13 254 34s114 50 125 81h0c12 36-10 100-55 160-65 86-186 175-336 175z m10 90a192 192 0 1 0 192 192 192 192 0 0 0-192-192z m0 324a132 132 0 1 1 132-132 132 132 0 0 1-132 132z" horiz-adv-x="1000" />

<glyph glyph-name="account-circle" unicode="&#xe808;" d="M511-136a489 489 0 0 0-346 835 489 489 0 0 0 692-692 486 486 0 0 0-346-143z m-357 251a429 429 0 0 1 714 0c-46 44-176 148-365 145-181-3-305-102-349-145z m357 205c193 0 329-99 388-151a427 427 0 0 1 41 184c0 237-192 429-429 429s-429-192-429-429a427 427 0 0 1 42-184 597 597 0 0 0 103 75c86 49 178 74 275 76 3 0 6 0 9 0z m9 48a174 174 0 1 0 174 174 174 174 0 0 0-174-174z m0 288a114 114 0 1 1 114-114 114 114 0 0 1-114 114z" horiz-adv-x="1000" />

<glyph glyph-name="adapter" unicode="&#xe809;" d="M424-52q-9 0-17 0c-84 3-159 30-219 77a431 431 0 0 0-116 141c-35 69-42 138-20 199 15 43 46 82 88 113v183a30 30 0 0 0 30 30h450a30 30 0 0 0 30-30v-6h258a30 30 0 0 0 30-30v-342a30 30 0 0 0-30-30h-258v-24a30 30 0 0 0-30-30h-450a30 30 0 0 0-30 30v169a165 165 0 0 1-32-53c-37-105 50-220 117-273 54-42 124-64 199-64 66 0 135 17 201 50a30 30 0 1 0 26-54c-73-37-151-56-227-56z m-224 311h390v372h-390v-372z m468 54h210v282h-210z m132 30h-24a30 30 0 0 0-30 30v36a30 30 0 0 0 30 30h24a30 30 0 0 0 30-30v-36a30 30 0 0 0-30-30z m0 126h-24a30 30 0 0 0-30 30v36a30 30 0 0 0 30 30h24a30 30 0 0 0 30-30v-36a30 30 0 0 0-30-30z" horiz-adv-x="1000" />

<glyph glyph-name="adjacent-rooms" unicode="&#xe80a;" d="M60-120a30 30 0 0 0-21 51l900 900a30 30 0 1 0 42-42l-900-900a30 30 0 0 0-21-9z m882 18h-396a30 30 0 0 0-30 30v236a30 30 0 0 0 30 30h12v112a30 30 0 0 0 30 30h292a30 30 0 0 0 30-30v-112h32a30 30 0 0 0 30-30v-236a30 30 0 0 0-30-30z m-366 60h336v176h-336z m42 236h232v82h-232z m-180 172h-378a30 30 0 0 0-30 30v236a30 30 0 0 0 30 30h10v112a30 30 0 0 0 30 30h278a30 30 0 0 0 30-30v-112h30a30 30 0 0 0 30-30v-236a30 30 0 0 0-30-30z m-348 60h318v176h-318z m40 236h218v82h-218z" horiz-adv-x="1000" />

<glyph glyph-name="aerobics" unicode="&#xe80b;" d="M279-145a30 30 0 0 0-24 49l152 194 8 193-29 128-65-87 12-144a30 30 0 1 0-60-4l-12 155a30 30 0 0 0 5 20l102 137-14 60a140 140 0 1 0 146 171h0a140 140 0 0 0-86-162l15-68 114 15 67 93a30 30 0 1 0 49-35l-75-103a30 30 0 0 0-20-13l-121-16 25-110 205 28a30 30 0 0 0 23-6l159-130a30 30 0 0 0-38-47l-149 122-194-27-8-182a30 30 0 0 0-6-17l-157-202a30 30 0 0 0-24-12z m85 921a80 80 0 1 1 78-62h0a80 80 0 0 1-78 62z" horiz-adv-x="1000" />

<glyph glyph-name="age" unicode="&#xe80c;" d="M505-154c-131 0-254 52-346 146s-143 219-143 352 51 258 143 352 215 146 346 146 254-52 346-146 143-219 143-352-51-258-143-352-215-146-346-146z m-298 184c77-77 182-124 298-124 237 0 429 197 429 438a442 442 0 0 1-107 289l-84-82a147 147 0 0 0-74-127 195 195 0 0 0 69-54c36-43 55-100 55-160s-19-118-55-161c-37-45-86-70-139-70s-103 25-140 70c-35 43-55 100-55 161 0 4 0 8 0 12l-16-16v-196a30 30 0 0 0-60 0v138z m278 270a203 203 0 0 1-21-90c0-94 60-170 135-170s134 76 134 170-60 170-134 170a109 109 0 0 1-40-8z m20 482c-237 0-429-196-429-438a442 442 0 0 1 91-269l161 157v272l-2-2a159 159 0 0 0-78-32 30 30 0 1 0-8 60 97 97 0 0 1 49 20c27 21 36 55 39 80v38a30 30 0 0 0 60 4 220 220 0 0 0 0-46v-336l48 47a228 228 0 0 0 23 33 196 196 0 0 0 66 53l2 2a147 147 0 0 0-72 127c0 80 64 146 144 146a144 144 0 0 0 128-79l58 57a422 422 0 0 1-280 106z m94-144c-47 0-84-39-84-86a86 86 0 0 1 58-82l107 104c-10 37-42 64-81 64z" horiz-adv-x="1000" />

<glyph glyph-name="air-cleaner" unicode="&#xe80d;" d="M962-130h-918a30 30 0 0 0-30 30v576a30 30 0 0 0 30 30h918a30 30 0 0 0 30-30v-576a30 30 0 0 0-30-30z m-888 60h858v516h-858z m420 84a30 30 0 0 0-30 30v132h-132a30 30 0 0 0 0 60h132v132a30 30 0 0 0 60 0v-132h132a30 30 0 0 0 0-60h-132v-132a30 30 0 0 0-30-30z m-133 504c-1 0-2 0-3 0a30 30 0 0 0-27 33c6 57-2 83-12 90-6 4-16 3-31 0-20-2-48-6-72 12-30 23-39 66-26 133a30 30 0 0 0 59-11c-9-50-2-70 3-74 4-3 16-2 27 0 20 3 48 6 73-10 34-22 47-70 39-146a30 30 0 0 0-30-27z m115 0a30 30 0 0 0-21 51c40 40 50 67 47 78-3 6-11 12-24 20-18 10-42 25-49 54-9 36 12 76 64 120a30 30 0 1 0 38-46c-38-33-46-53-44-60 1-5 12-11 21-17 18-10 41-24 51-53 12-39-8-84-62-138a30 30 0 0 0-21-9z m126 1a30 30 0 0 0-11 57c52 21 72 41 73 53 1 7-4 15-14 28-11 17-28 39-23 69 6 37 41 65 106 85a30 30 0 1 0 18-58c-49-14-63-30-65-37 0-5 6-15 13-24 12-16 28-39 25-69-4-40-40-74-111-102a30 30 0 0 0-11-2z" horiz-adv-x="1000" />

<glyph glyph-name="alarm" unicode="&#xe80e;" d="M848-140a30 30 0 0 0-23 11l-77 92a443 443 0 0 0-521-1l-76-91a30 30 0 1 0-46 38l76 91q-4 4-7 8a443 443 0 0 0-85 508c-25 22-56 58-63 108-6 49 11 102 48 144 39 44 91 70 144 70h1c81 0 136-59 158-89a448 448 0 0 0 236-5c20 27 76 94 162 94h1c53 0 105-26 144-70 37-43 54-95 48-144-7-51-39-88-65-109a30 30 0 0 0-16-7 443 443 0 0 0-88-500c-2-2-4-4-5-6l77-93a30 30 0 0 0-23-49z m-362 843c-210 0-382-172-382-383s172-382 382-382 383 172 383 382-172 383-383 383z m186 19a447 447 0 0 0 189-165 29 29 0 0 0 4 4c17 15 39 39 43 71 5 31-8 68-34 97-27 31-62 49-98 49h-1c-48 0-84-34-103-56z m-453 56h-1c-35 0-71-18-98-49-26-29-39-66-34-97 3-27 19-48 34-63a447 447 0 0 0 54 64 442 442 0 0 0 142 96c-20 22-53 49-97 49z m431-612a30 30 0 0 0-15 4l-180 108a30 30 0 0 0-15 26v324a30 30 0 0 0 60 0v-307l165-99a30 30 0 0 0-15-56z" horiz-adv-x="1000" />

<glyph glyph-name="ans" unicode="&#xe80f;" d="M522-92a18 18 0 1 0-18 19 18 18 0 0 0 18-19z m-19 129c26 145 111 646 54 718-8 10-30 38-54 35-20-3-32-26-36-35-37-74 22-595 36-718z m1-177a48 48 0 1 0 48 48 48 48 0 0 0-48-48z m0 60a12 12 0 1 1 12-12 12 12 0 0 1-12 12z m-1 87h-1a30 30 0 0 0-29 27c-16 139-29 270-37 378-20 268-9 331 4 356 6 12 23 47 59 52 41 5 70-32 81-46 21-26 41-90 11-354-13-109-33-243-59-388a30 30 0 0 0-29-25z m4 753c-1 0-6-4-13-18-5-10-18-61 2-325 3-48 8-100 13-155 9 60 16 115 22 165 10 84 15 154 15 206 1 84-11 102-13 103-16 21-24 24-26 24z m0 0z" horiz-adv-x="1000" />

<glyph glyph-name="animators" unicode="&#xe810;" d="M501-130c-3 0-5 0-8 0-82 2-167 45-234 118-81 89-125 212-119 337-37 21-66 49-86 82-25 42-34 94-26 152a367 367 0 0 0 24 91 30 30 0 0 0 47 12 643 643 0 0 1 88-59 330 330 0 0 0 613 2 647 647 0 0 1 107 74 30 30 0 0 0 48-17c9-42 23-149-40-239a261 261 0 0 0-49-52c19-139-22-276-112-376-71-79-165-125-253-125z m-302 430c1-102 39-199 105-271 55-61 125-97 191-99 73-2 153 37 214 105 72 81 108 189 100 300a332 332 0 0 0-81-27c-75-15-157-5-233 27-82-42-171-58-254-45a335 335 0 0 0-42 10z m-104 289c-11-40-19-101 11-152 26-45 79-77 145-87 74-12 155 3 229 44a30 30 0 0 0 27 1c135-62 289-36 359 62 33 47 39 102 37 143-79-57-222-136-411-136-6 0-11 0-17 0-172 4-303 72-380 125z m146-13a625 625 0 0 1 236-52 624 624 0 0 1 269 54c-39 104-140 174-252 174-113 0-214-71-253-176z m262-526q-5 0-10 0c-76 4-127 45-146 62a30 30 0 0 0 42 44c13-13 51-43 107-46 65-3 109 34 122 46a30 30 0 1 0 41-44c-16-15-73-62-156-62z" horiz-adv-x="1000" />

<glyph glyph-name="antibac-gel" unicode="&#xe811;" d="M714-130h-432a30 30 0 0 0-30 30v543a30 30 0 0 0 1 8c10 33 48 140 143 191v140a30 30 0 0 0 30 30h144a30 30 0 0 0 30-30v-140c95-51 133-158 143-191a30 30 0 0 0 1-8v-543a30 30 0 0 0-30-30z m-402 60h372v508c-9 27-44 123-126 158-54 23-102 7-120 0-82-35-117-131-126-158z m144 738h84v84h-84z m33-546a30 30 0 0 0-30 30v69h-69a30 30 0 0 0 0 60h69v69a30 30 0 0 0 60 0v-69h69a30 30 0 0 0 0-60h-69v-69a30 30 0 0 0-30-30z" horiz-adv-x="1000" />

<glyph glyph-name="aquapark" unicode="&#xe812;" d="M859-109a175 175 0 0 0-32 3 180 180 0 0 0-78 36 105 105 0 0 0-152-7c-25-25-61-36-96-28a99 99 0 0 0-46 25 92 92 0 0 0-51-26c-41-6-71 19-79 26a30 30 0 1 0 42 44c0-1 13-13 29-10 14 2 25 14 29 30a30 30 0 0 0 58 3c5-18 17-30 32-34 19-4 44 8 55 36a30 30 0 0 0 57-2 45 45 0 0 1 86 0 30 30 0 0 0 52 10c11-13 35-36 72-43a118 118 0 0 1 43 0 30 30 0 0 0 11-59 182 182 0 0 0-32-4z m-306 145a175 175 0 0 0-32 3 180 180 0 0 0-78 35 105 105 0 0 0-152-7c-25-25-61-36-96-28a99 99 0 0 0-46 25 92 92 0 0 0-51-26c-41-6-71 19-79 26a30 30 0 1 0 42 44c0-1 13-13 29-10 14 2 25 14 29 30a30 30 0 0 0 58 3c5-18 17-30 32-34 19-4 44 8 55 36a30 30 0 0 0 57-2 45 45 0 0 1 86 0 30 30 0 0 0 52 10c11-13 35-36 72-43a118 118 0 0 1 43 0 30 30 0 1 0 11-59 182 182 0 0 0-32-3z m405 2a30 30 0 0 0-8 1l-720 209a30 30 0 0 0-11 6c-44 36-61 91-46 143 24 79 108 100 112 101a32 32 0 0 0 5 1q6 0 12 1a30 30 0 0 0 9 9c13 10 37 31 41 60 5 32-17 59-29 73-64 77-181 99-238 109-11 2-19 4-26 5-32 9-32 31-31 38 2 14 12 24 30 29 31 9 124 16 223 4 89-12 211-44 286-130 23-27 78-91 60-170-6-30-22-58-47-82 23-10 48-21 74-32 41-17 88-37 137-61a30 30 0 0 0 15-17 535 535 0 0 1 51-107 585 585 0 0 1 120-137 30 30 0 0 0-19-53z m-299 148l196-57a621 621 0 0 0-48 68 596 596 0 0 0-53 106c-18 9-36 17-54 25l0 0c-2-1-55-15-69-60-9-29 2-60 27-81 0 0 1-1 1-1z m-197 57l111-32a131 131 0 0 0 1 74c10 35 32 58 54 74-28 12-54 23-79 35q-21 10-43 18a30 30 0 0 0-8-4c-3-1-55-16-69-66-9-33 1-68 27-91a30 30 0 0 0 6-8z m-209 60l121-35a148 148 0 0 0 47 166q-20 3-42 5a506 506 0 0 1-82 0c-9-3-54-18-66-59-8-27 0-56 22-77z m132 196a558 558 0 0 0 135-29 29 29 0 0 0 5 6c17 13 37 35 44 64a80 80 0 0 1 2 13 30 30 0 0 0-12 7 147 147 0 0 1-89 39 151 151 0 0 1-58-6 122 122 0 0 0 0-32 134 134 0 0 0-27-62z m73 161c5 0 11 0 16-1a205 205 0 0 0 57-12c-4 4-7 8-10 11-63 73-174 100-255 110q-13 1-25 3c46-20 93-48 128-90a245 245 0 0 0 23-32 212 212 0 0 0 66 11z" horiz-adv-x="1000" />

<glyph glyph-name="atm" unicode="&#xe813;" d="M738-120h-486a30 30 0 0 0-30 30v774a30 30 0 0 0 30 30h486a30 30 0 0 0 30-30v-774a30 30 0 0 0-30-30z m-456 60h426v714h-426z m366 48h-306a30 30 0 0 0 0 60h306a30 30 0 0 0 0-60z m-153 126a183 183 0 1 0 183 183 183 183 0 0 0-183-183z m0 306a123 123 0 1 1 123-123 123 123 0 0 1-123 123z m153 144h-306a30 30 0 0 0 0 60h306a30 30 0 0 0 0-60z m288 18h-108a30 30 0 0 0 0 60h78v102h-804v-102h78a30 30 0 0 0 0-60h-108a30 30 0 0 0-30 30v162a30 30 0 0 0 30 30h864a30 30 0 0 0 30-30v-162a30 30 0 0 0-30-30z" horiz-adv-x="1000" />

<glyph glyph-name="bad-hear" unicode="&#xe814;" d="M497-126a482 482 0 0 0-341 141 478 478 0 0 0 0 679 486 486 0 0 0 683 0 478 478 0 0 0 0-679 482 482 0 0 0-342-141z m0 900c-233 0-423-188-423-420s190-420 423-420 424 188 424 420-190 420-424 420z m-12-792a165 165 0 1 0 165 165 165 165 0 0 0-165-165z m0 270a105 105 0 1 1 105-105 105 105 0 0 1-105 105z m198 72a147 147 0 1 0 147 147 147 147 0 0 0-147-147z m0 234a87 87 0 1 1 87-87 87 87 0 0 1-87 87z m-378-234a147 147 0 1 0 147 147 147 147 0 0 0-147-147z m0 234a87 87 0 1 1 87-87 87 87 0 0 1-87 87z" horiz-adv-x="1000" />

<glyph glyph-name="badmington" unicode="&#xe815;" d="M590-120a30 30 0 0 0-26 15l-333 561h0c-86-2-163 42-191 109-21 50-13 113 22 166 36 56 92 89 149 91 83 2 161-61 188-149l558-140a30 30 0 0 0 3-57c-113-40-123-73-124-82-1-18 20-40 37-58 10-10 19-20 25-29 15-22 12-40 7-50-8-17-25-25-49-26-14 0-29 2-46 4-18 2-36 4-51 4-12-1-18-4-19-5s-3-8-1-18c3-14 9-30 15-46 6-16 11-32 14-46 5-25 0-43-14-56-25-23-58-9-85 2-16 6-39 16-47 12-1-1-28-17-2-167a30 30 0 0 0-30-35z m-312 615l271-457c3 51 17 82 45 97 33 17 69 2 98-10 5-2 10-4 16-6-3 9-7 22-11 30-14 39-32 87-5 122 29 36 82 29 126 23 4 0 9-1 14-1l-2 1c-24 26-57 60-54 104 3 37 29 70 81 98l-473 119z m-62 267l-3 0c-38-1-75-25-100-63-24-37-31-79-17-111 16-41 65-69 121-72l124 140c-19 61-71 106-125 106z m338-540a30 30 0 0 0-24 12l-198 252a30 30 0 1 0 48 37l198-252a30 30 0 0 0-24-49z m166 174a30 30 0 0 0-12 3l-292 132a30 30 0 1 0 24 54l292-132a30 30 0 0 0-12-57z" horiz-adv-x="1000" />

<glyph glyph-name="basket" unicode="&#xe816;" d="M773-116c-69 0-126 56-126 124a123 123 0 0 0 54 102h-334a123 123 0 0 0 53-102c0-68-56-124-125-124s-126 56-126 124a123 123 0 0 0 54 102h-24a30 30 0 0 0-30 30v577l-130 32a30 30 0 0 0 14 58l153-37a30 30 0 0 0 23-30v-7h735a30 30 0 0 0 30-34l-77-564a30 30 0 0 0-29-26h-43a123 123 0 0 0 53-101c0-68-56-124-125-124z m0 188c-36 0-66-29-66-64s30-64 66-64 65 28 65 64-29 64-65 64z m-478 0c-37 0-66-29-66-64s29-64 66-64 65 28 65 64-29 64-65 64z m375 97h191l18 128h-195z m-250 0h190l14 128h-204z m-191 0h131v128h-131z m461 188h197l17 128h-200z m-270 0h210l13 128h-223z m-191 0h131v128h-131z m481 188h202l18 128h-207z m-290 0h230l13 128h-243z m-191 0h131v128h-131z" horiz-adv-x="1000" />

<glyph glyph-name="fav" unicode="&#xe817;" d="M506-76a30 30 0 0 0-21 9l-430 426a32 32 0 0 0-3 3c-49 66-53 127-52 157 7 142 151 248 275 248h1c54 0 97-20 113-27a314 314 0 0 0 113-90 314 314 0 0 0 112 87c16 8 59 27 113 27h1c124 0 268-106 274-247 2-31-3-92-51-158a28 28 0 0 0-3-3l-1-1-414-415a30 30 0 0 0-6-7 30 30 0 0 0-21-9z m-407 476l406-403 399 400c36 50 40 95 39 117-6 107-120 190-215 190h-1c-41 0-75-16-88-21-56-26-91-68-110-98a30 30 0 0 0-41-9l-1 1a30 30 0 0 0-14 11c-19 30-53 72-109 97-13 6-47 22-88 22h-1c-95 0-210-84-215-190-1-23 3-67 39-117z" horiz-adv-x="1000" />

<glyph glyph-name="bbq" unicode="&#xe818;" d="M114-136a30 30 0 0 0-25 46l156 249a480 480 0 0 0-66 48c-92 78-145 184-149 298a30 30 0 0 0 30 31h882a30 30 0 0 0 30-31c-4-110-54-214-142-292a473 473 0 0 0-64-49l105-149a90 90 0 0 0 15 2c45 0 81-35 81-77s-36-76-81-76c-35 0-64 20-76 48h-642a30 30 0 0 0-7 1l-22-35a30 30 0 0 0-25-14z m772 92c-12 0-22-7-22-16s10-16 22-16 21 7 21 16-10 16-21 16z m-687 16h613a76 76 0 0 0 7 13l-107 150a509 509 0 0 0-413-4z m-106 504c23-186 204-330 417-326 204 3 376 147 400 326z m559 72a30 30 0 0 0-25 47c36 52 34 74 32 79 0 4-2 6-9 12-9 8-23 20-27 43-5 30 9 64 43 103a30 30 0 0 0 45-40c-30-34-30-50-29-53 0-1 1-3 7-8 9-8 22-20 28-41 9-33-4-75-40-129a30 30 0 0 0-25-13z m-324 0a30 30 0 0 0-25 47c36 52 34 74 32 79-1 4-2 6-9 12-9 8-23 20-27 43-6 30 9 64 43 103a30 30 0 0 0 45-40c-30-34-30-50-29-53 0-1 1-3 7-8 9-8 22-20 28-41 9-33-4-75-40-129a30 30 0 0 0-25-13z m165 0a30 30 0 0 0-25 47c35 52 33 74 32 79-1 4-3 6-10 12-9 8-23 20-27 43-5 30 9 64 43 103a30 30 0 0 0 45-40c-30-34-29-50-29-53 1-1 1-3 8-8 9-8 22-20 28-41 9-33-5-75-40-129a30 30 0 0 0-25-13z" horiz-adv-x="1000" />

<glyph glyph-name="beach" unicode="&#xe819;" d="M964-125a30 30 0 0 0-16 5 1027 1027 0 0 1-662 146q-10-61-16-121a30 30 0 0 0-30-27h-180a30 30 0 0 0-30 33 871 871 0 0 0 56 235 81 81 0 0 0-17 3c-36 11-51 44-55 54a30 30 0 1 0 56 22c0-1 6-15 17-18s27 3 36 20l0 1a878 878 0 0 0 251 296l-4 2c-29 18-73 46-134 54-57 8-118-3-181-33a30 30 0 0 0-39 42c26 47 64 86 107 111 45 26 93 37 139 30 71-11 125-60 157-106a281 281 0 0 0 44 90c32 42 72 70 117 82 96 25 192-31 230-72 7-8 27-29 18-53-2-7-11-25-40-24a249 249 0 0 0-29 4l-6 1c46-35 77-83 89-116 3-9 13-37-4-56-5-6-20-18-46-6a252 252 0 0 0-26 14c-29 19-73 46-134 54h0a276 276 0 0 1-83-1 93 93 0 1 0-142-119 1709 1709 0 0 1-71-190 30 30 0 0 0 4-8c13-34 45-56 76-52 32 4 49 37 49 38a30 30 0 0 0 44 11c20-14 73-43 140-31a186 186 0 0 1 93 46 30 30 0 0 0 45-5c18-28 49-44 81-41 41 3 64 37 67 40a30 30 0 0 0 50-32c-7-11-44-63-113-68a148 148 0 0 0-114 42 243 243 0 0 0-99-42c-67-12-124 8-158 26-16-18-41-39-77-44-41-6-81 11-110 42q-9-33-16-67a1087 1087 0 0 0 682-156 30 30 0 0 0-16-56z m-870 63h119q6 54 16 107a28 28 0 0 0-1 3 30 30 0 0 0 5 21c9 46 20 91 32 135h0a1762 1762 0 0 0 73 211 810 810 0 0 1-161-215c0 0-1 0-1-1a806 806 0 0 1-82-261z m389 570a33 33 0 1 1 33-33 33 33 0 0 1-33 33z m157 94c48-7 88-23 118-39-24 30-60 63-108 70-40 6-82-7-119-34a338 338 0 0 0 109 3z m-440 41a324 324 0 0 0 44-3h0a351 351 0 0 0 118-39c-24 30-60 62-108 69-40 6-82-7-119-33a349 349 0 0 0 65 6z m430 99a138 138 0 0 1-35-4c-39-11-72-39-96-78a338 338 0 0 0 99 46c47 12 90 13 124 10-25 14-57 26-92 26z" horiz-adv-x="1000" />

<glyph glyph-name="beach-facilities" unicode="&#xe81a;" d="M962-146a30 30 0 0 0-27 18l-54 122h-346l-66-124a30 30 0 1 0-53 28l61 116-125 79a30 30 0 1 0 32 50l141-89h375a30 30 0 0 0 28-17l62-141a30 30 0 0 0-28-42z m-722 0h-180a30 30 0 0 0-30 33 867 867 0 0 0 94 317 877 877 0 0 0 250 296l-3 2c-30 18-74 46-135 54-57 8-118-3-181-33a30 30 0 0 0-39 42c27 47 64 86 107 111 45 26 93 37 140 30 70-11 124-60 156-106a281 281 0 0 0 45 90c31 42 71 70 116 82 96 25 192-31 230-72 7-8 27-29 19-53-3-7-12-25-41-24a249 249 0 0 0-29 4l-6 1c46-35 77-83 89-116 3-9 13-37-3-56-6-6-21-18-47-6a252 252 0 0 0-25 15c-30 18-74 45-135 54h0a276 276 0 0 1-83-2 93 93 0 1 0-142-119 1698 1698 0 0 1-137-517 30 30 0 0 0-30-27z m-146 60h119a1757 1757 0 0 0 126 477 806 806 0 0 1-245-477z m389 570a33 33 0 1 1 33-33 33 33 0 0 1-33 33z m335 20h0z m-222 77a324 324 0 0 0 44-3h0c49-7 88-23 118-39-23 30-60 63-108 70-40 6-82-7-119-34a349 349 0 0 0 65 6z m-396 38a324 324 0 0 0 44-3h0c49-7 88-23 118-39-23 30-60 62-108 69-40 6-82-7-119-33a349 349 0 0 0 65 6z m430 99a138 138 0 0 1-34-4c-39-11-73-39-96-78a338 338 0 0 0 99 46h0c47 12 89 13 123 10-25 14-57 26-92 26z" horiz-adv-x="1000" />

<glyph glyph-name="viber" unicode="&#xe81b;" d="M720-97h-408l-83 32-198-50q31 96 62 192a600 600 0 0 0-34 79c-18 52 0 210 0 408a253 253 0 0 0 253 253h408a253 253 0 0 0 253-253v-408a253 253 0 0 0-253-253z m-430 761c-38-38-89-102-104-190-36-214 158-466 364-464 33 0 113 7 204 86l-132 132-114-94a407 407 0 0 0-198 264l82 96z m221-225c5 0 32 0 54-22a74 74 0 0 0 20-52 25 25 0 0 1 48-2c1 8 3 48-26 82-34 41-83 40-90 40a24 24 0 0 1-6-46z m11 153c-4-11 2-25 14-32 10 0 77 1 126-54 45-50 43-109 42-120 4-15 18-24 30-22 9 2 17 9 20 18 1 13 5 96-60 162-61 62-138 64-152 64-1 0-15-3-20-16z m62 84c18 0 107 0 180-70 82-78 79-180 78-196a26 26 0 0 1 50-6c1 19 6 138-88 232-86 86-193 88-214 88-1 0-15-5-18-20a27 27 0 0 1 12-28z" horiz-adv-x="1000" />

<glyph glyph-name="whatsapp" unicode="&#xe81c;" d="M980 366c8-168-88-332-239-415-229-127-455 3-465 9l-200-50 30 234c-83 145-82 323 4 460 128 204 369 204 391 204 232-4 468-193 479-442z m-639 324c-36-36-86-98-101-184-34-206 154-450 353-449 32 0 109 7 197 83l-128 128-110-91a394 394 0 0 0-192 256l80 93z" horiz-adv-x="1000" />

<glyph glyph-name="suitcase" unicode="&#xe81d;" d="M873-24h-741a88 88 0 0 0-88 89v463a88 88 0 0 0 88 88h741a88 88 0 0 0 89-88v-463a88 88 0 0 0-89-89z m-145 640q0 37 0 73a30 30 0 0 1-1 7 149 149 0 0 1-23 53c-30 44-79 57-115 55h-178c-37 2-86-11-116-55a149 149 0 0 1-23-53 30 30 0 0 1 0-7q0-36 0-73h58q1 35 2 70a88 88 0 0 0 12 29c22 30 57 30 64 29 1 0 1 0 2 0h180c0 0 1 0 1 0 7 1 43 1 64-29a89 89 0 0 0 13-29l2-70c9 0 18 0 28 0q15 0 30 0z m-488-456q0 228 0 456h-60q0-228 0-456a30 30 0 0 1 60 0z m576 0q0 228 0 456h-62q1-228 2-456a30 30 0 0 1 60 0z" horiz-adv-x="1000" />

<glyph glyph-name="suitcase-tag-outline" unicode="&#xe81e;" d="M870-80h-742a118 118 0 0 0-118 118v464a118 118 0 0 0 118 118h150c0 1 0 1 0 2v43a29 29 0 0 0 1 7 152 152 0 0 0 22 53c30 45 80 59 116 57h178c36 2 86-12 116-57a152 152 0 0 0 22-53 29 29 0 0 0 1-7v-43c0-1 0-1 0-2h136a118 118 0 0 0 118-118v-464a118 118 0 0 0-118-118z m-742 640a58 58 0 0 1-58-58v-464a58 58 0 0 1 58-58h742a58 58 0 0 1 58 58v464a58 58 0 0 1-58 58h-564v-34l106-82a30 30 0 0 0 12-24v-306a30 30 0 0 0-30-30h-234a30 30 0 0 0-30 30v306a30 30 0 0 0 12 24l104 80v36z m62-416h174v261l-87 67-87-67z m148 476h336c0 1 0 1 0 2v40a91 91 0 0 1-13 30c-21 31-56 30-63 30q-1 0-2 0h-180q-1 0-2 0c-7 0-42 1-63-30a91 91 0 0 1-13-30v-40c0-1 0-1 0-2z m-61-284a39 39 0 1 0 39 39 39 39 0 0 0-39-39z m0 60a21 21 0 1 1 21-21 21 21 0 0 1-21 21z" horiz-adv-x="1000" />

<glyph glyph-name="suitcase-outline" unicode="&#xe81f;" d="M872-76h-742a118 118 0 0 0-118 118v464a118 118 0 0 0 118 118h140v43a30 30 0 0 0 1 6 149 149 0 0 0 22 53c31 44 80 58 116 56h178c36 2 85-12 116-56a149 149 0 0 0 22-53 30 30 0 0 0 1-6v-43h146a118 118 0 0 0 118-118v-464a118 118 0 0 0-118-118z m-742 640a58 58 0 0 1-58-58v-464a58 58 0 0 1 58-58h742a58 58 0 0 1 58 58v464a58 58 0 0 1-58 58h-58v-426a30 30 0 0 0-60 0v426h-516v-426a30 30 0 0 0-60 0v426z m200 60h336v39a88 88 0 0 1-13 29c-21 31-56 30-63 30-1 0-1 0-2 0h-180c-1 0-1 0-2 0-7 0-42 1-63-30a88 88 0 0 1-13-29z" horiz-adv-x="1000" />

<glyph glyph-name="bed-socket" unicode="&#xe820;" d="M682-70h-630a30 30 0 0 0-30 30v378a30 30 0 0 0 30 30h42v240a30 30 0 0 0 30 30h468a30 30 0 0 0 30-30v-240h60a30 30 0 0 0 30-30v-378a30 30 0 0 0-30-30z m-600 60h570v318h-570z m450 378h30v210h-408v-210h30v96a30 30 0 0 0 30 30h288a30 30 0 0 0 30-30z m-288 0h228v66h-228z m582-258a31 31 0 0 0-5 0 30 30 0 0 0-25 30v255h-78a30 30 0 0 0-28 39l126 364a30 30 0 0 0 58-10v-239h78a30 30 0 0 0 29-39l-126-379a30 30 0 0 0-29-21z m-66 345h66a30 30 0 0 0 30-30v-99l54 163h-66a30 30 0 0 0-30 30v91z" horiz-adv-x="1000" />

<glyph glyph-name="bell" unicode="&#xe821;" d="M480-150c-100 0-157 70-168 84a31 31 0 0 0-3 6h-151a30 30 0 0 0-30 28c-8 142 7 283 45 407 34 111 84 205 145 271 42 46 88 76 132 86v84a30 30 0 0 0 60 0v-82c47-8 95-36 140-84 62-64 116-160 151-270 40-125 57-267 49-412a30 30 0 0 0-30-28h-168a31 31 0 0 0-4-6c-60-80-150-84-168-84z m-89 90a149 149 0 0 1 89-30c6 0 50 1 90 30z m-204 60h604c10 298-92 513-184 609-42 44-86 67-124 67-37-1-80-26-121-71-89-96-186-311-175-605z" horiz-adv-x="1000" />

<glyph glyph-name="bento" unicode="&#xe822;" d="M948-132h-900a30 30 0 0 0-30 30v900a30 30 0 0 0 30 30h900a30 30 0 0 0 30-30v-900a30 30 0 0 0-30-30z m-870 60h840v840h-840z m762 30h-306a30 30 0 0 0-30 30v720a30 30 0 0 0 30 30h306a30 30 0 0 0 30-30v-720a30 30 0 0 0-30-30z m-276 60h246v660h-246z m-138-60h-270a30 30 0 0 0-30 30v396a30 30 0 0 0 30 30h270a30 30 0 0 0 30-30v-396a30 30 0 0 0-30-30z m-240 60h210v336h-210z m240 444h-270a30 30 0 0 0-30 30v216a30 30 0 0 0 30 30h270a30 30 0 0 0 30-30v-216a30 30 0 0 0-30-30z m-240 60h210v156h-210z" horiz-adv-x="1000" />

<glyph glyph-name="bicycle" unicode="&#xe823;" d="M818 6c-92 0-167 76-167 170a171 171 0 0 0 103 158l-16 74-256-262a30 30 0 0 0-22-9h-121c-18-75-84-131-163-131-93 0-168 76-168 170s75 171 168 171a165 165 0 0 0 95-30l132 134c-34 3-66 13-80 39-15 31 2 69 24 91h0c47 48 131 34 189 8 31-13 67-37 64-68a41 41 0 0 0-10-24h129l-13 57a30 30 0 0 0 23 35c45 10 73 19 90 26-22 9-63 19-124 28a30 30 0 1 0 8 59c20-3 59-9 95-18 47-12 96-29 96-67 1-34-35-58-123-79l42-191c2 0 4 0 5 0 93 0 168-77 168-171s-75-170-168-170z m-51 268a111 111 0 0 1-56-98c0-60 48-110 107-110s108 50 108 110c0 59-44 106-100 111l12-57a30 30 0 0 0-58-13z m-591 13c-60 0-108-50-108-111s48-110 108-110c46 0 85 30 100 71h-109a30 30 0 0 0-22 51l83 85a105 105 0 0 1-52 14z m166-90h88v196l-117-119a171 171 0 0 0 29-77z m-104 0h44a112 112 0 0 1-12 33z m252 240v-196l193 196z m-113 81c8-5 34-11 82-6a301 301 0 0 1 68 15 208 208 0 0 1-82 25c-14 2-41 1-55-13h0c-7-7-12-16-13-21z m0-2h0z" horiz-adv-x="1000" />

<glyph glyph-name="bidet" unicode="&#xe824;" d="M489-124h-431a30 30 0 0 0-30 30v504a30 30 0 0 0 1 9 30 30 0 0 0-1 9v360a30 30 0 0 0 30 30h162a30 30 0 0 0 30-30v-348h690a30 30 0 0 0 30-31c-3-73-24-214-133-342h0c-122-144-281-181-344-191a30 30 0 0 0-4 0z m-401 60h398c58 9 197 43 305 170h0c84 98 110 205 117 274h-820z m726 150h0z m-726 372h102v300h-102z m630 30c-3 0-6 0-9 0-48 5-82 41-97 71-34 70 5 171 98 252a30 30 0 0 0 40-1c41-38 70-82 84-127 15-47 13-91-7-125s-61-70-109-70z m10 258c-62-62-78-126-62-160 6-12 24-36 48-38 27-2 52 23 61 39 20 34 8 97-47 159z m-280-258c-3 0-6 0-9 0-48 5-82 41-97 71-34 70 5 171 98 252a30 30 0 0 0 40-1c41-38 70-82 84-127 15-47 13-91-7-125s-61-70-109-70z m10 258c-62-62-78-126-62-160 6-12 24-36 48-38 27-2 52 23 61 39 20 34 8 97-47 159z" horiz-adv-x="1000" />

<glyph glyph-name="billiards" unicode="&#xe825;" d="M511-142a489 489 0 0 0-346 835 489 489 0 0 0 692-692 486 486 0 0 0-346-143z m0 918c-237 0-429-192-429-429s192-429 429-429 429 192 429 429-192 429-429 429z m9-774c-185 0-336 151-336 336s151 336 336 336 336-151 336-336-151-336-336-336z m0 612c-152 0-276-124-276-276s124-276 276-276 276 124 276 276-124 276-276 276z m2-504c-27 0-55 11-77 32-28 26-45 63-45 97 0 30 16 47 35 70 9 11 22 25 36 45 5 7 10 13 15 20-41 53-60 78-53 115 7 35 37 72 77 74 31 1 64-20 78-50 20-42 0-91-28-136 71-91 80-111 80-139 0-28-11-57-29-81-21-28-50-44-80-47-3 0-6 0-9 0z m2 215l-4-6c-17-23-30-38-40-50-18-20-20-24-20-31h0c0-16 10-37 25-52 8-6 23-18 41-16 29 2 54 39 54 68 0 9-10 27-56 87z m-94-87h0z m84 265h-1c-7-1-18-13-21-25-1-9 6-22 28-50 1 2 2 4 3 5 12 25 16 43 11 54-4 9-14 16-20 16z" horiz-adv-x="1000" />

<glyph glyph-name="bingo" unicode="&#xe826;" d="M966-142h-936a30 30 0 0 0-30 30v918a30 30 0 0 0 30 30h936a30 30 0 0 0 30-30v-918a30 30 0 0 0-30-30z m-294 60h264v246h-264z m-306 0h246v246h-246z m-306 0h246v246h-240a30 30 0 0 0-6 1z m0 552v-247a30 30 0 0 0 6 1h240v246z m612-246h264v246h-264z m-306 0h246v246h-246z m306 306h264v246h-264z m-306 0h246v246h-246z m-306 0h246v246h-246z m753-600a111 111 0 1 0 111 111 111 111 0 0 0-111-111z m0 162a51 51 0 1 1 51-51 51 51 0 0 1-51 51z m0 144a111 111 0 1 0 111 111 111 111 0 0 0-111-111z m0 162a51 51 0 1 1 51-51 51 51 0 0 1-51 51z m-630 144a111 111 0 1 0 111 111 111 111 0 0 0-111-111z m0 162a51 51 0 1 1 51-51 51 51 0 0 1-51 51z" horiz-adv-x="1000" />

<glyph glyph-name="bluetooth" unicode="&#xe827;" d="M475-102a30 30 0 0 0-30 30v363l-216-119a30 30 0 0 0-29 52l213 118-213 118a30 30 0 0 0 29 52l216-119v381a30 30 0 0 0 52 20l261-288a30 30 0 0 0-7-46l-214-118 214-118a30 30 0 0 0 7-47l-261-270a30 30 0 0 0-22-9z m30 393v-289l182 189z m0 405v-303l183 101z" horiz-adv-x="1000" />

<glyph glyph-name="bluetooth-key" unicode="&#xe828;" d="M226-138h-1a30 30 0 0 0-22 11l-64 83a30 30 0 0 0-7 18l-4 444c-30 20-91 71-99 155-6 59 17 122 60 168 40 42 92 65 144 63 50-2 101-27 138-70 39-45 58-102 52-157a199 199 0 0 0-41-101 216 216 0 0 0-60-54l39-95a30 30 0 0 0-5-31l-49-56 51-54a30 30 0 0 0 0-41l-65-75 50-54a30 30 0 0 0 0-41l-95-103a30 30 0 0 0-22-10z m-34 123l36-47 52 57-50 54a30 30 0 0 0 0 40l65 75-50 55a30 30 0 0 0-1 40l54 62-43 103a30 30 0 0 0 16 40c51 21 87 68 92 119 4 39-10 80-38 112-26 30-60 48-94 49s-70-15-98-45c-32-33-48-78-44-120 7-76 80-116 83-118a30 30 0 0 0 16-26z m523-105a30 30 0 0 0-10 2 30 30 0 0 0-20 28v357l-160-112a30 30 0 0 0-34 50l172 119-172 119a30 30 0 0 0 34 50l160-112v375a30 30 0 0 0 54 18l207-288a30 30 0 0 0-7-43l-171-119 171-119a30 30 0 0 0 7-43l-207-270a30 30 0 0 0-24-12z m30 387v-269l134 175z m0 396v-282l135 94z m-526-182a70 70 0 0 0-51 23 80 80 0 0 0-1 106 69 69 0 0 0 103 2h0a80 80 0 0 0 2-106 71 71 0 0 0-52-25z m0 93h0a10 10 0 0 1-7-4c-6-7-6-19 0-25a10 10 0 0 1 7-4 10 10 0 0 1 8 4 20 20 0 0 1 0 26h0a10 10 0 0 1-8 3z" horiz-adv-x="1000" />

<glyph glyph-name="blu-ray" unicode="&#xe829;" d="M754-132a30 30 0 0 0-19 54c10 7 60 48 107 119 62 92 90 191 85 294-9 193-135 364-320 435a30 30 0 0 0 22 56 566 566 0 0 0 252-193 544 544 0 0 0 106-295c14-276-191-445-215-464a30 30 0 0 0-18-6z m-373 92c-178 0-358 50-358 146v1a838 838 0 0 0 23 190c32 131 97 255 188 359a30 30 0 1 0 45-39c-85-97-145-213-175-334a773 773 0 0 1-16-90c68 39 181 58 293 58 177 0 358-50 358-145s-181-146-358-146z m-298 146c0-13 23-35 76-54 58-20 137-32 222-32s163 12 222 32c52 19 76 41 76 54s-24 35-76 53c-59 21-138 32-222 32s-164-11-222-32c-52-18-76-40-76-53z" horiz-adv-x="1000" />

<glyph glyph-name="bow" unicode="&#xe82a;" d="M940-142a30 30 0 0 0-7 1l-722 176-6-6a30 30 0 0 0-42 42l6 7-158 685a30 30 0 0 0 20 36c19 5 116 32 247 29a784 784 0 0 0 217-36 699 699 0 0 0 230-125h0c6-5 12-10 18-15l71 70h-80a30 30 0 0 0 0 60h152a30 30 0 0 0 20-7 29 29 0 0 0 4-5 30 30 0 0 0 6-16c0 0 0-1 0-2v-126a30 30 0 0 0-60 0v54l-69-70c182-187 253-465 182-730a30 30 0 0 0-29-22z m-679 227l657-161c53 236-13 478-174 644z m-185 663l143-620 482 481q-7 6-14 12c-114 93-253 143-411 147a803 803 0 0 1-200-20z" horiz-adv-x="1000" />

<glyph glyph-name="bottle" unicode="&#xe82b;" d="M720-118h-432a30 30 0 0 0-30 30v543a30 30 0 0 0 1 8c10 33 48 140 143 191v140a30 30 0 0 0 30 30h144a30 30 0 0 0 30-30v-140c95-51 133-158 143-191a30 30 0 0 0 1-8v-543a30 30 0 0 0-30-30z m-402 60h372v138h-372z m0 198h372v210h-372z m0 270h372v40c-9 28-44 123-126 158-54 23-102 7-120 0-82-35-117-130-126-158z m144 270h84v84h-84z" horiz-adv-x="1000" />

<glyph glyph-name="bowling" unicode="&#xe82c;" d="M803-124h-144a30 30 0 0 0-25 14c-68 111-94 215-76 310 12 62 39 102 62 138 27 39 47 71 46 125-2 38-13 67-24 95-16 40-33 81-10 134 19 45 63 90 117 90s99-45 118-90c22-52 6-94-9-134-11-28-22-57-25-96-3-56 15-87 39-128 20-35 43-75 51-136h0c13-96-19-201-95-309a30 30 0 0 0-25-13z m-127 60h112c61 91 86 177 76 254h0c-7 49-25 81-44 115-25 43-51 87-46 161a288 288 0 0 0 5 40h-58a263 263 0 0 0 4-41c3-74-26-118-55-160-22-34-43-66-53-117-14-75 6-160 59-252z m27 630h85a31 31 0 0 0 8-1c2 5 4 10 6 15 15 39 22 60 10 88-11 26-37 54-63 54s-51-28-62-54c-12-28-5-49 10-88 2-4 4-9 6-14z m-428-690a255 255 0 1 0 255 255 255 255 0 0 0-255-255z m0 450a195 195 0 1 1 195-195 195 195 0 0 1-195 195z m-9-234a48 48 0 1 0 48 48 48 48 0 0 0-48-48z m0 60a12 12 0 1 1 12-12 12 12 0 0 1-12 12z m36 48a48 48 0 1 0 48 48 48 48 0 0 0-48-48z m0 60a12 12 0 1 1 12-12 12 12 0 0 1-12 12z m-117-60a39 39 0 1 0 39 39 39 39 0 0 0-39-39z m0 60a21 21 0 1 1 21-21 21 21 0 0 1-21 21z" horiz-adv-x="1000" />

<glyph glyph-name="cafeteria" unicode="&#xe82d;" d="M377-150c-86 0-180 48-252 129a474 474 0 0 0-95 162c-23 67-31 137-23 210a30 30 0 0 0 29 27h681a30 30 0 0 0 30-27 503 503 0 0 0 1-99 213 213 0 0 0 98 13c47-5 89-27 114-61 24-32 33-72 26-117-6-36-22-73-45-100-34-42-88-67-151-72-59-4-123 10-182 41-69-67-154-106-231-106z m-313 468c-7-150 62-251 105-299 61-67 140-109 208-109s147 42 208 109c43 48 112 149 105 299z m585-315c95-45 198-36 246 22 26 32 50 99 17 143-15 20-42 34-73 37-34 4-71-5-103-26l-1-1q-4-19-11-37a476 476 0 0 0-75-138z m-73 405a30 30 0 0 0-20 7c-64 56-90 107-81 154 6 34 29 55 47 72 15 14 24 23 24 32 0 8-4 30-58 64a30 30 0 0 0 32 50c60-37 88-75 86-116-2-35-25-57-43-74-14-13-27-24-29-39-5-24 17-58 62-98a30 30 0 0 0-20-52z m-163 0a30 30 0 0 0-20 7c-64 56-90 107-82 154 7 34 29 55 48 72 14 14 23 23 24 32 0 8-5 30-58 64a30 30 0 1 0 32 50c60-37 88-75 86-116-2-35-25-57-44-74-14-13-26-24-29-39-4-24 18-58 63-98a30 30 0 0 0-20-52z m-180 0a30 30 0 0 0-20 7c-64 56-90 107-82 154 7 34 29 55 48 72 14 14 23 23 24 32 0 8-5 30-58 64a30 30 0 1 0 32 50c60-37 88-75 86-116-2-35-25-57-44-74-14-13-26-24-29-39-4-24 18-58 63-98a30 30 0 0 0-20-52z" horiz-adv-x="1000" />

<glyph glyph-name="home" unicode="&#xe82e;" d="M336-133h0l-266 4a30 30 0 0 0-30 30l-2 566a30 30 0 0 0 12 24l420 320a30 30 0 0 0 35 1l448-320a30 30 0 0 0 13-25l4-568a30 30 0 0 0-30-30h-274a30 30 0 0 0-30 30v332h-268l-2-334a30 30 0 0 0-30-30z m-236 64l206-4 2 334a30 30 0 0 0 30 30h328a30 30 0 0 0 30-30v-332h214l-4 523-417 298-391-298z" horiz-adv-x="1000" />

<glyph glyph-name="card" unicode="&#xe82f;" d="M958 4h-918a30 30 0 0 0-30 30v648a30 30 0 0 0 30 30h918a30 30 0 0 0 30-30v-648a30 30 0 0 0-30-30z m-888 60h858v318h-858z m0 378h858v66h-858z m0 126h858v84h-858z m780-456h-234a30 30 0 0 0-30 30v144a30 30 0 0 0 30 30h234a30 30 0 0 0 30-30v-144a30 30 0 0 0-30-30z m-204 60h174v84h-174z" horiz-adv-x="1000" />

<glyph glyph-name="carpet" unicode="&#xe830;" d="M721-138h-667a30 30 0 0 0-30 30v900a30 30 0 0 0 30 30h900a30 30 0 0 0 30-30v-900a30 30 0 0 0-30-30h-233z m29 60h174v174c-1 0-2 0-3 0-15-1-92-9-139-77-24-35-31-71-32-97z m-412 0h352c1 34 10 84 43 131 62 90 164 102 184 103a31 31 0 0 0 7 0v389c-33-1-93 3-149 42-80 56-98 142-102 175h-372c1-33-3-93-42-149-56-80-142-98-175-102v-375a32 32 0 0 0 4 0c28 1 99-1 161-52 65-51 83-122 89-162z m-254 0h193c-5 31-20 80-65 115-47 38-101 40-121 39a30 30 0 0 0-7 1z m0 840v-190c28 4 87 20 125 75 31 44 33 90 32 115z m650 0c4-28 20-87 75-125 44-31 90-33 115-32v157z m-245-648c-2 0-3 0-5 0-23 2-46 15-64 37-21 25-34 58-36 93a170 170 0 0 0-65 28c-27 19-43 45-43 70 0 21 11 43 30 62 25 23 59 37 97 40 4 38 19 73 42 97 18 19 39 29 59 29s41-10 59-29c23-24 38-59 42-98 38-4 74-18 98-42 19-17 29-38 29-59s-10-41-29-59c-24-23-60-38-98-42-5-37-22-71-47-96-21-20-46-31-69-31z m-70 271c-42 0-65-19-72-25-9-9-11-16-11-17 0-10 28-40 80-43a30 30 0 0 0 28-32c-3-30 6-59 22-79 9-10 18-15 22-15 6 0 17 4 28 14 10 9 32 35 30 81a30 30 0 0 0 32 31c49-2 76 19 83 26 9 9 11 15 11 16s-2 8-11 16c-7 7-34 29-83 26a30 30 0 0 0-32 32c2 49-19 76-26 84-8 8-15 10-16 10s-8-2-16-10c-7-8-28-35-26-84a30 30 0 0 0-32-32c-4 1-8 1-11 1z" horiz-adv-x="1000" />

<glyph glyph-name="car-rent" unicode="&#xe831;" d="M743-146a93 93 0 1 0 93 93 93 93 0 0 0-93-93z m0 126a33 33 0 1 1 33-33 33 33 0 0 1-33 33z m-486-126a93 93 0 1 0 93 93 93 93 0 0 0-93-93z m0 126a33 33 0 1 1 33-33 33 33 0 0 1-33 33z m711-54h-90a30 30 0 0 0-30 31c2 59-42 109-98 113-28 2-56-9-78-30a112 112 0 0 1-34-83 30 30 0 0 0-30-31h-216a30 30 0 0 0-30 31c2 59-42 109-98 113-28 2-56-9-78-30a112 112 0 0 1-34-83 30 30 0 0 0-30-31h-90a30 30 0 0 0-30 30v288a30 30 0 0 0 3 12l126 288a30 30 0 0 0 27 18h468a30 30 0 0 0 29-24l49-228h264a30 30 0 0 0 30-30v-324a30 30 0 0 0-30-30z m-62 60h32v264h-366a30 30 0 0 0-29 23l-53 229h-28l49-215a30 30 0 0 0-29-37h-216a30 30 0 0 0-30 30v222h-30v-222a30 30 0 0 0-30-30h-109l-5-12v-252h32a173 173 0 0 0 51 98c34 32 78 49 123 46 78-5 141-67 152-144h160a173 173 0 0 0 51 98c34 32 78 49 123 46 78-5 141-67 152-144z m-310 324h47l-41 192h-50z m-300 0h148l-44 192h-104z m-202 0h52v120z m730 174a30 30 0 0 0-30 30v42h-42a30 30 0 0 0 0 60h42v30h-42a30 30 0 0 0 0 60h42v96a30 30 0 0 0 16 27c60 31 131 19 164-27 25-35 33-92-2-129-30-31-72-29-85-27h-33v-30h42a30 30 0 0 0 0-60h-42v-42a30 30 0 0 0-30-30z m30 222h35a30 30 0 0 0 4 0c1 0 24-4 35 9 13 13 7 39-2 52-12 16-41 25-72 15z" horiz-adv-x="1000" />

<glyph glyph-name="casino" unicode="&#xe832;" d="M510-130h-2a480 480 0 0 0-339 819 480 480 0 0 0 614 55 30 30 0 0 0 7-4 30 30 0 0 0 6-6 489 489 0 0 0 52-44 477 477 0 0 0 139-312 30 30 0 0 0 3-11 29 29 0 0 0-2-11c0-2 0-4 0-6a477 477 0 0 0-141-339c-3-3-6-6-9-9a30 30 0 0 0-13-13 476 476 0 0 0-314-119z m-220 121a417 417 0 0 1 190-60v102a316 316 0 0 0-130 41z m250 43v-103a418 418 0 0 1 228 90l-68 76a316 316 0 0 0-160-63z m-450 271a420 420 0 0 1 151-279l60 83a318 318 0 0 0-108 200z m654-168l68-76a418 418 0 0 1 116 274l-102-4a317 317 0 0 0-82-194z m-379-2a258 258 0 1 1-23 412 30 30 0 0 0-12-11 257 257 0 0 1-80-185 30 30 0 0 0 1-21 258 258 0 0 1 102-186 29 29 0 0 0 7-4 30 30 0 0 0 5-5z m-159 506a419 419 0 0 1-118-276l103 4a317 317 0 0 0 83 196z m512-52a318 318 0 0 0 105-198l103 4a420 420 0 0 1-148 277z m-468 92l69-76a316 316 0 0 0 159 62v102a418 418 0 0 1-228-88z m288-14a316 316 0 0 0 131-43l60 83a417 417 0 0 1-191 62z m96-527h-72a30 30 0 0 0-30 30v342a30 30 0 0 0 30 30h72a30 30 0 0 0 30-30v-342a30 30 0 0 0-30-30z m-42 60h12v282h-12z m-120-60h-90a30 30 0 0 0 0 60h60v156h-60a30 30 0 0 0-30 30v126a30 30 0 0 0 30 30h90a30 30 0 0 0 0-60h-60v-66h60a30 30 0 0 0 30-30v-216a30 30 0 0 0-30-30z" horiz-adv-x="1000" />

<glyph glyph-name="cctv" unicode="&#xe833;" d="M875-101a30 30 0 0 0-15 4l-95 54-19-33a30 30 0 0 0-41-11l-570 329a30 30 0 0 0-11 41l75 131-148 86a30 30 0 0 0-15 26v234a30 30 0 0 0 60 0v-217l133-77 58 100a30 30 0 0 0 41 11l570-330a30 30 0 0 0 11-41l-17-29 95-54a30 30 0 0 0 11-41l-97-168a30 30 0 0 0-26-15z m-59 98l48-27 67 116-48 28z m-625 282l518-299 133 230-518 300z" horiz-adv-x="1000" />

<glyph glyph-name="cd" unicode="&#xe834;" d="M912-128h-810a30 30 0 0 0-30 30v180a30 30 0 0 0 30 30h810a30 30 0 0 0 30-30v-180a30 30 0 0 0-30-30z m-546 60h516v120h-516z m-234 0h174v120h-174z m454 206a327 327 0 0 0-57 5 30 30 0 0 0-25 29v468a30 30 0 0 0 60 0v-442c37-3 96 0 152 35 87 55 107 148 113 179 20 97 0 226-77 275-11 7-35 13-200 13-126 0-209 0-239-15-69-34-140-117-145-226-3-71 25-173 112-225 32-20 70-31 111-32a30 30 0 1 0-2-60c-51 1-99 15-140 40-48 29-86 73-110 126a341 341 0 0 0-31 153 325 325 0 0 0 57 170c31 46 75 85 122 108 40 20 106 21 265 21h8c179 0 201-8 224-23 49-31 84-85 101-156a435 435 0 0 0 3-181c-8-37-31-149-140-217-58-37-117-45-162-45z" horiz-adv-x="1000" />

<glyph glyph-name="chart" unicode="&#xe835;" d="M968-140h-918a30 30 0 0 0-30 30v918a30 30 0 0 0 60 0v-888h888a30 30 0 0 0 0-60z m-810 198a30 30 0 0 0-26 44l162 306a30 30 0 0 0 40 13l229-115 327 430a30 30 0 1 0 48-36l-342-450a30 30 0 0 0-37-9l-226 113-148-280a30 30 0 0 0-27-16z" horiz-adv-x="1000" />

<glyph glyph-name="chevron-down" unicode="&#xe836;" d="M987 620a30 30 0 0 0-7-20l-468-540a30 30 0 0 0-46 1l-450 540a30 30 0 0 0 47 38l427-513 445 514a30 30 0 0 0 52-20z" horiz-adv-x="1000" />

<glyph glyph-name="cheese" unicode="&#xe837;" d="M950-102h-450a30 30 0 0 0-30 33 101 101 0 0 1-29 81c-19 21-46 32-70 30-23-1-45-14-62-33a102 102 0 0 1-23-78 30 30 0 0 0-30-33h-168a30 30 0 0 0-30 23 1608 1608 0 0 0 0 698 30 30 0 0 0 20 22 30 30 0 0 0 15 16l263 126a30 30 0 0 0 19 2l581-126a30 30 0 0 0 23-35c0-1 0-2 0-3a30 30 0 0 0 1-9v-684a30 30 0 0 0-30-30z m-420 60h390v624h-259c-6-78-62-136-120-144-36-4-76 10-108 39a173 173 0 0 0-55 105h-266a1548 1548 0 0 1 0-624h114a162 162 0 0 0 38 89c26 32 64 52 103 55 42 3 86-15 117-48a163 163 0 0 0 46-96z m-329 684h205a30 30 0 0 0 30-31 115 115 0 0 1 37-90c19-17 42-26 61-23 32 4 74 49 67 111a30 30 0 0 0 30 33h122l-380 83z m505-654c-47 0-86 38-86 84s39 84 86 84 87-38 87-84-39-84-87-84z m0 108c-14 0-26-11-26-24s12-24 26-24 27 11 27 24-12 24-27 24z m-234 36c-42 0-77 34-77 75s35 75 77 75 77-34 77-75-35-75-77-75z m0 90c-9 0-17-7-17-15s8-15 17-15 17 7 17 15-8 15-17 15z m300-18c-73 0-133 58-133 129s60 129 133 129 133-58 133-129-60-129-133-129z m0 198c-40 0-73-31-73-69s33-69 73-69 73 31 73 69-33 69-73 69z m-506-72c-53 0-96 42-96 93s43 93 96 93 95-42 95-93-43-93-95-93z m0 126c-20 0-36-15-36-33s16-33 36-33 35 15 35 33-16 33-35 33z" horiz-adv-x="1000" />

<glyph glyph-name="chevron-down-low" unicode="&#xe838;" d="M979 458a30 30 0 0 0-17-27l-468-216a30 30 0 0 0-25 0l-450 216a30 30 0 0 0 26 54l437-210 455 210a30 30 0 0 0 42-27z" horiz-adv-x="1000" />

<glyph glyph-name="chevron-left-big" unicode="&#xe839;" d="M748-144a30 30 0 0 0-20 7l-540 468a30 30 0 0 0 1 46l540 450a30 30 0 1 0 38-46l-513-427 514-445a30 30 0 0 0-20-53z" horiz-adv-x="1000" />

<glyph glyph-name="chevron-left-low" unicode="&#xe83a;" d="M596-144a30 30 0 0 0-27 17l-216 468a30 30 0 0 0 0 26l216 450a30 30 0 1 0 54-26l-210-437 210-455a30 30 0 0 0-27-43z" horiz-adv-x="1000" />

<glyph glyph-name="chevron-right-big" unicode="&#xe83b;" d="M230-144a30 30 0 0 0-19 53l530 445-530 427a30 30 0 1 0 38 46l558-450a30 30 0 0 0 0-46l-558-468a30 30 0 0 0-19-7z" horiz-adv-x="1000" />

<glyph glyph-name="chevron-right-low" unicode="&#xe83c;" d="M402-144a30 30 0 0 0-27 43l210 455-210 437a30 30 0 0 0 54 26l216-450a30 30 0 0 0 0-25l-216-469a30 30 0 0 0-27-17z" horiz-adv-x="1000" />

<glyph glyph-name="chevron-up" unicode="&#xe83d;" d="M992 71a30 30 0 0 0-52-19l-445 530-427-530a30 30 0 1 0-47 38l450 558a30 30 0 0 0 46 0l468-558a30 30 0 0 0 7-19z" horiz-adv-x="1000" />

<glyph glyph-name="chevron-up-low" unicode="&#xe83e;" d="M1001 242a30 30 0 0 0-42-27l-455 210-438-210a30 30 0 1 0-26 54l450 216a30 30 0 0 0 26 0l468-216a30 30 0 0 0 17-27z" horiz-adv-x="1000" />

<glyph glyph-name="church" unicode="&#xe83f;" d="M488-150a30 30 0 0 0-30 30v113l-101-50a30 30 0 0 0-26 54l127 64v455h-258a30 30 0 0 0 0 60h258v240a30 30 0 0 0 60 0v-240h258a30 30 0 0 0 0-60h-258v-425l101 50a30 30 0 1 0 26-54l-127-63v-144a30 30 0 0 0-30-30z" horiz-adv-x="1000" />

<glyph glyph-name="cinema" unicode="&#xe840;" d="M930-120h-864a30 30 0 0 0-30 30v882a30 30 0 0 0 30 30h864a30 30 0 0 0 30-30v-882a30 30 0 0 0-30-30z m-834 60h804v174h-804z m0 234h804v336h-804z m0 396h804v192h-804z m744-600h-90a30 30 0 0 0-30 30v36a30 30 0 0 0 30 30h90a30 30 0 0 0 30-30v-36a30 30 0 0 0-30-30z m-216 0h-90a30 30 0 0 0-30 30v36a30 30 0 0 0 30 30h90a30 30 0 0 0 30-30v-36a30 30 0 0 0-30-30z m-198 0h-90a30 30 0 0 0-30 30v36a30 30 0 0 0 30 30h90a30 30 0 0 0 30-30v-36a30 30 0 0 0-30-30z m-180 0h-90a30 30 0 0 0-30 30v36a30 30 0 0 0 30 30h90a30 30 0 0 0 30-30v-36a30 30 0 0 0-30-30z m594 648h-90a30 30 0 0 0-30 30v36a30 30 0 0 0 30 30h90a30 30 0 0 0 30-30v-36a30 30 0 0 0-30-30z m-216 0h-90a30 30 0 0 0-30 30v36a30 30 0 0 0 30 30h90a30 30 0 0 0 30-30v-36a30 30 0 0 0-30-30z m-198 0h-90a30 30 0 0 0-30 30v36a30 30 0 0 0 30 30h90a30 30 0 0 0 30-30v-36a30 30 0 0 0-30-30z m-180 0h-90a30 30 0 0 0-30 30v36a30 30 0 0 0 30 30h90a30 30 0 0 0 30-30v-36a30 30 0 0 0-30-30z" horiz-adv-x="1000" />

<glyph glyph-name="city" unicode="&#xe841;" d="M670-105h-289a25 25 0 0 0-7 1h-99a25 25 0 0 0-4 0h-180a24 24 0 0 0-4 0h-49a25 25 0 0 0 0 50h28v410a25 25 0 0 0 25 25h84a25 25 0 0 0 0 4v232a25 25 0 0 0 25 25h156v127a25 25 0 0 0 25 25h289a25 25 0 0 0 25-25v-226a25 25 0 0 0 9-3l212-116a25 25 0 0 0 13-22v-456h35a25 25 0 0 0 0-50h-286a25 25 0 0 0-8-1z m25 51h184v442l-184 100z m-289 0h239v798h-239z m-110 0h60v646h-131v-207a25 25 0 0 0 0-4h46a25 25 0 0 0 25-25z m-180 0h130v385h-130z m675 128a25 25 0 0 0-25 25v72a25 25 0 0 0 50 0v-72a25 25 0 0 0-25-25z m-322 162a25 25 0 0 0-25 25v72a25 25 0 0 0 50 0v-72a25 25 0 0 0-25-25z m324 18a25 25 0 0 0-25 25v72a25 25 0 0 0 50 0v-72a25 25 0 0 0-25-25z m-216 144a25 25 0 0 0-25 25v72a25 25 0 0 0 50 0v-72a25 25 0 0 0-25-25z m2 180a25 25 0 0 0-25 25v72a25 25 0 0 0 50 0v-72a25 25 0 0 0-25-25z m-110 0a25 25 0 0 0-25 25v72a25 25 0 0 0 50 0v-72a25 25 0 0 0-25-25z" horiz-adv-x="1000" />

<glyph glyph-name="cleaners" unicode="&#xe842;" d="M630-124h-432a30 30 0 0 0-30 30v645l-124 47a30 30 0 0 0-20 28v144a30 30 0 0 0 30 30h540a30 30 0 0 0 30-30v-90a30 30 0 0 0-23-29l-202-51c-25-59-30-107-12-140 10-20 23-28 55-46a810 810 0 0 0 80-52c49-36 117-86 153-154 55-105 21-229-18-314a30 30 0 0 0-27-18z m-402 60h382c30 72 52 167 11 244-29 56-90 101-135 134l18 24-18-24a755 755 0 0 1-74 48c-34 19-60 35-79 70-20 41-22 90-5 148l-100-30z m-144 711l115-43 170 51 1 0 1 0 193 48v37h-480z m330-627a30 30 0 0 0-30 30v42h-42a30 30 0 0 0 0 60h42v42a30 30 0 0 0 60 0v-42h42a30 30 0 0 0 0-60h-42v-42a30 30 0 0 0-30-30z m540 432a30 30 0 0 0-16 5l-288 180a30 30 0 0 0-14 25v108a30 30 0 0 0 26 30l288 36a30 30 0 0 0 34-30v-324a30 30 0 0 0-30-30z m-258 227l228-143v236l-228-28z" horiz-adv-x="1000" />

<glyph glyph-name="clothes-dryer" unicode="&#xe843;" d="M899-134h-379a30 30 0 0 0-25 14l-80 123-91-125a30 30 0 0 0-24-12h-198a30 30 0 0 0-24 48l216 275-289 445a30 30 0 0 0 7 40l223 164a30 30 0 0 0 17 6h715a30 30 0 0 0 29-29c0-1 0-2 0-2h0a30 30 0 0 0-6-17l-349-481 283-402a30 30 0 0 0-25-47z m-362 60h304l-237 338-151-209z m-373 0h121l95 131-51 79z m204 260l50-77 149 206-46 66z m-283 434l248-381 152 193-133 189z m475-190l44-63 251 346-139-84z m-135 191l99-140 110 141z m-179 151l-124-92 188 1z m65 12l72-103 305 1 170 102z" horiz-adv-x="1000" />

<glyph glyph-name="club" unicode="&#xe844;" d="M144-145a30 30 0 0 0-30 30v34a30 30 0 0 0 60 0v-34a30 30 0 0 0-30-30z m372 87c-208 0-377 170-377 378 0 198 153 361 347 376v104a30 30 0 0 0 60 0v-104c195-15 348-178 348-376 0-208-169-378-378-378z m-102 77a316 316 0 0 1 72-16v88h-105a536 536 0 0 1 28-54 30 30 0 0 0 5-18z m132 72v-88a316 316 0 0 1 73 16 30 30 0 0 0 4 18 536 536 0 0 1 29 54z m171 0q-5-14-11-26a321 321 0 0 1 31 26z m-421 0a321 321 0 0 1 31-26q-6 13-12 26z m442 60h43a30 30 0 0 0 4 0 316 316 0 0 1 48 139h-72a587 587 0 0 0-23-139z m-192 0h130a529 529 0 0 1 25 139h-155z m-189 0h129v139h-154a529 529 0 0 1 25-139z m-110 0h47a587 587 0 0 0-23 139h-71a316 316 0 0 1 47-139z m514 199h72a316 316 0 0 1-48 138h-50a587 587 0 0 0 26-138z m-215 0h154a530 530 0 0 1-28 138h-126z m-214 0h154v139h-126a530 530 0 0 1-28-139z m-132 0h72a587 587 0 0 0 25 138h-46a30 30 0 0 0-4 1 316 316 0 0 1-47-139z m513 198h24a321 321 0 0 1-38 32c5-10 10-20 14-31z m-167 0h101a530 530 0 0 1-40 69 30 30 0 0 0-4 8 317 317 0 0 1-57 11z m-161 0h101v88a315 315 0 0 1-57-11 30 30 0 0 0-4-8 530 530 0 0 1-40-68z m-89 0h23c5 11 10 22 15 32a321 321 0 0 1-38-31z m-211-587h-31a30 30 0 0 0 0 60h31a30 30 0 0 0 0-60z m149 1h-31a30 30 0 0 0 0 60h31a30 30 0 0 0 0-60z m-90 72a30 30 0 0 0-30 30v34a30 30 0 0 0 60 0v-34a30 30 0 0 0-30-30z m720 538a30 30 0 0 0-30 30v34a30 30 0 0 0 60 0v-34a30 30 0 0 0-30-30z m-59 106h-31a30 30 0 0 0 0 60h31a30 30 0 0 0 0-60z m149 1h-31a30 30 0 0 0 0 60h31a30 30 0 0 0 0-60z m-90 72a30 30 0 0 0-30 30v34a30 30 0 0 0 60 0v-34a30 30 0 0 0-30-30z" horiz-adv-x="1000" />

<glyph glyph-name="coffee-machine" unicode="&#xe845;" d="M950-154h-900a30 30 0 0 0-30 30v936a30 30 0 0 0 30 30h900a30 30 0 0 0 30-30v-936a30 30 0 0 0-30-30z m-870 60h840v588h-840z m0 648h840v228h-840z m381-619c-49 0-103 27-144 73-51 57-75 131-67 209a30 30 0 0 0 30 27h362a30 30 0 0 0 30-27 289 289 0 0 0 2-35 124 124 0 0 0 38 2c29-3 55-17 71-38 30-41 17-99-11-133-39-48-116-57-186-24-38-34-83-54-125-54z m-152 249a206 206 0 0 1 52-136c30-33 68-53 100-53s71 20 100 53a206 206 0 0 1 53 136z m319-148c42-14 81-5 98 15 11 14 21 43 8 59-11 16-42 21-70 5a262 262 0 0 0-36-79z m-94 232a30 30 0 0 0-19 6c-14 11-58 46-49 90 5 22 20 35 31 43 1 1 3 3 5 4-3 3-9 8-21 15a30 30 0 1 0 29 52c14-8 56-31 54-70-1-24-18-38-29-47-3-3-8-7-10-9 1-2 4-12 27-31a30 30 0 0 0-18-53z m-30 140h0z m-96-140a30 30 0 0 0-19 6c-14 11-58 46-49 90 4 22 20 35 30 43 2 1 4 3 5 4-3 3-9 8-20 15a30 30 0 1 0 29 52c14-8 56-31 54-70-2-24-18-38-29-47-4-3-9-7-10-9 0-2 4-12 27-31a30 30 0 0 0-18-53z m-30 140z m104 176a84 84 0 1 0 84 84 84 84 0 0 0-84-84z m0 108a24 24 0 1 1 24-24 24 24 0 0 1-24 24z" horiz-adv-x="1000" />

<glyph glyph-name="compass" unicode="&#xe846;" d="M501-136a489 489 0 0 0-346 835 489 489 0 0 0 692-692 486 486 0 0 0-346-143z m0 918c-237 0-429-192-429-429s192-429 429-429 429 192 429 429-192 429-429 429z m-266-729a30 30 0 0 0-18 54l257 200-71 40a30 30 0 0 0-5 48l295 268a30 30 0 1 0 40-45l-264-240 74-41a30 30 0 0 0 3-50l-293-227a30 30 0 0 0-18-7z" horiz-adv-x="1000" />

<glyph glyph-name="conditioner" unicode="&#xe847;" d="M480-76a30 30 0 0 0-19 53c38 33 46 53 44 60-1 5-11 11-21 17-18 10-41 24-51 53-12 39 8 84 62 138a30 30 0 1 0 42-42c-40-40-50-67-46-78 2-6 10-12 24-20 17-10 41-24 48-54 9-36-11-76-63-120a30 30 0 0 0-20-7z m-230 36a30 30 0 0 0-9 59c49 15 64 30 65 37 1 5-6 15-13 24-12 16-28 39-25 69 4 40 40 74 111 102a30 30 0 0 0 22-55c-52-21-72-41-73-53-1-7 5-15 14-28 12-17 28-39 23-69-6-37-41-65-106-85a30 30 0 0 0-9-1z m523 1a30 30 0 0 0-30 36c9 50 3 70-3 74-4 3-16 2-27 0-20-3-48-6-73 10-34 22-47 70-39 146a30 30 0 1 0 60-6c-6-56 2-83 12-90 6-4 16-3 31 0 20 2 48 6 72-12 30-23 39-66 26-133a30 30 0 0 0-29-25z m16 341h-576a191 191 0 0 0-191 191v307a30 30 0 0 0 30 30h900a30 30 0 0 0 30-30v-304a194 194 0 0 0-194-194z m-23 60h22a134 134 0 0 1 134 134v274h-840v-277a131 131 0 0 1 120-131v132a30 30 0 0 0 30 30h504a30 30 0 0 0 30-30z m-504 0h444v102h-444z" horiz-adv-x="1000" />

<glyph glyph-name="container" unicode="&#xe848;" d="M930-82h-846a30 30 0 0 0-30 30v608a30 30 0 0 0-18 28v120a30 30 0 0 0 30 30h882a30 30 0 0 0 30-30v-120a30 30 0 0 0-18-28v-608a30 30 0 0 0-30-30z m-816 60h786v571h-786z m-18 636h822v60h-822z m545-555a284 284 0 0 0-34 2 273 273 0 0 0-173 91h-242a30 30 0 0 0 0 60h648a30 30 0 0 0 24-48c-52-66-136-105-223-105z m-115 93a212 212 0 0 1 88-31 233 233 0 0 1 147 31z m301 126h-172a30 30 0 0 0-27 16 205 205 0 0 0-21 64h-415a30 30 0 0 0 0 60h415a205 205 0 0 0 21 64 30 30 0 0 0 27 16h172a30 30 0 0 0 0-60h-153a142 142 0 0 1-6-20h115a30 30 0 0 0 0-60h-115a142 142 0 0 1 6-20h153a30 30 0 0 0 0-60z" horiz-adv-x="1000" />

<glyph glyph-name="cookie" unicode="&#xe849;" d="M508-136c-127 0-248 50-339 141s-141 212-141 339 50 248 141 339 212 141 339 141a30 30 0 0 0 30-35c-4-19-29-188 99-316s297-103 316-99a30 30 0 0 0 35-30c0-127-50-248-141-339s-212-141-339-141z m-34 899c-215-17-386-199-386-419 0-232 188-420 420-420 220 0 402 171 419 386-69-4-215 4-332 121s-125 263-121 332z m-11-791a75 75 0 1 0 75 75 75 75 0 0 0-75-75z m0 90a15 15 0 1 1 15-15 15 15 0 0 1-15 15z m243 18a66 66 0 1 0 66 66 66 66 0 0 0-66-66z m0 72a6 6 0 1 1 6-6 6 6 0 0 1-6 6z m-171 90a75 75 0 1 0 75 75 75 75 0 0 0-75-75z m0 90a15 15 0 1 1 15-15 15 15 0 0 1-15 15z m-270-54a75 75 0 1 0 75 75 75 75 0 0 0-75-75z m0 90a15 15 0 1 1 15-15 15 15 0 0 1-15 15z m63 162a66 66 0 1 0 66 66 66 66 0 0 0-66-66z m0 72a6 6 0 1 1 6-6 6 6 0 0 1-6 6z" horiz-adv-x="1000" />

<glyph glyph-name="cosmetics" unicode="&#xe84a;" d="M538-124h-126a30 30 0 0 0-30 30v132h-60a30 30 0 0 0-30 28l-54 702a30 30 0 0 0 30 32h432a30 30 0 0 0 30-32l-54-702a30 30 0 0 0-30-28h-78v-132a30 30 0 0 0-30-30z m-96 60h66v102h-66z m96 162h80l50 642h-368l50-642z" horiz-adv-x="1000" />

<glyph glyph-name="cosmetic-service" unicode="&#xe84b;" d="M763-146c-5 0-44 1-83 46-22 25-49 86-34 321 6 99 18 193 24 238-1 1-1 2-2 2-88 94-125 200-96 271 14 34 43 61 83 78 34 15 75 22 118 22 73-1 168-27 197-100 14-37 9-84-15-136-21-46-56-92-100-135 6-44 18-140 24-240 15-235-12-296-34-321-38-45-78-46-82-46z m-34 598c-6-44-17-137-23-234-14-221 12-270 20-279 17-20 33-24 37-25 4 1 19 5 36 25 9 9 34 58 20 279-6 97-17 190-23 234z m41 320c-59 0-125-19-143-62-19-46 12-127 76-198h118c71 72 110 154 93 198-14 36-72 61-142 62z m-340-918h-360a30 30 0 0 0-30 30v486a30 30 0 0 0 30 30h18v60a30 30 0 0 0 30 30h18v168a30 30 0 0 0 4 15c-5 12-5 26-2 42 9 37 38 76 73 95 58 32 117 10 135 2a30 30 0 0 0 11-9h0l0 0h0c1 0 1-1 1-1h0v0l0 0h0a30 30 0 0 0 6-18v-294h18a30 30 0 0 0 30-30v-60h18a30 30 0 0 0 30-30v-486a30 30 0 0 0-30-30z m-330 60h300v426h-300z m48 486h204v30h-204z m48 90h108v178a139 139 0 0 0-29-19c-21-10-52-18-79-16z m0 204c8-2 31-1 53 9 28 14 42 41 49 61-16 4-38 5-58-6a95 95 0 0 1-36-37c-7-13-8-22-8-27z m-1 1" horiz-adv-x="1000" />

<glyph glyph-name="account-dark" unicode="&#xe84c;" d="M499-142c-181 0-402 40-444 154-19 52-3 123 44 194 37 57 90 109 150 147 70 44 147 70 225 74 82 5 166-14 241-55a517 517 0 0 0 168-143c59-79 83-160 63-216h0c-18-51-73-91-163-118-75-23-171-36-272-37-4 0-8 0-12 0z m10 600a192 192 0 1 0 192 192 192 192 0 0 0-192-192z" horiz-adv-x="1000" />

<glyph glyph-name="cupboard" unicode="&#xe84d;" d="M950-134h-900a30 30 0 0 0-30 30v900a30 30 0 0 0 30 30h900a30 30 0 0 0 30-30v-900a30 30 0 0 0-30-30z m-438 60h408v840h-408z m-432 0h372v840h-372z m510 300a30 30 0 0 0-30 30v162a30 30 0 0 0 60 0v-162a30 30 0 0 0-30-30z m-216 0a30 30 0 0 0-30 30v162a30 30 0 0 0 60 0v-162a30 30 0 0 0-30-30z" horiz-adv-x="1000" />

<glyph glyph-name="currency-converter" unicode="&#xe84e;" d="M266-134a30 30 0 0 0-30 30v24h-168a30 30 0 0 0 0 60h168v304h-139a30 30 0 0 0-30 30v410a30 30 0 0 0 30 30h139v60a30 30 0 0 0 60 0v-60h150a30 30 0 0 0 0-60h-150v-350h150a30 30 0 0 0 30-30v-364a30 30 0 0 0-30-30h-150v-24a30 30 0 0 0-30-30z m30 114h120v304h-120z m-169 364h109v350h-109z m787-424h-306a30 30 0 0 0-30 30v294h-42a30 30 0 0 0 0 60h42v48h-42a30 30 0 0 0 0 60h42v312a30 30 0 0 0 30 30h306a30 30 0 0 0 0-60h-276v-282h204a30 30 0 0 0 0-60h-204v-48h204a30 30 0 0 0 0-60h-204v-264h276a30 30 0 0 0 0-60z" horiz-adv-x="1000" />

<glyph glyph-name="darts" unicode="&#xe84f;" d="M243-144a30 30 0 0 0-29 22l-42 151-139 23a30 30 0 0 0-23 41l35 91a30 30 0 0 0 20 18l247 70a31 31 0 0 0 6 9l405 423a30 30 0 0 0 42 1l20-18 135 141a30 30 0 1 0 43-42l-135-141 19-18a30 30 0 0 0 1-43l-405-423a30 30 0 0 0-25-9l-42-246a30 30 0 0 0-23-24l-103-25a31 31 0 0 0-7-1z m-164 249l122-20a30 30 0 0 0 24-22l39-141 56 14 40 232-44 43-220-63z m303 156l39-37 363 380-39 37z" horiz-adv-x="1000" />

<glyph glyph-name="delivery" unicode="&#xe850;" d="M704-132a30 30 0 0 0-30 35l37 222-135 106-1-1-84-184a30 30 0 0 0-24-18l-240-20a30 30 0 1 0-5 60l222 18 64 142h-224a30 30 0 0 0-30 30v280a30 30 0 0 0 30 30h218a140 140 0 1 0 92-19v-199l97-23a30 30 0 1 0-14-58l-74 17 159-124a30 30 0 0 0 12-29l-40-240a30 30 0 0 0-30-25z m-390 420h220v14l-117 27a30 30 0 0 0-12 52l129 111v16h-220z m175 86l45-11v50z m85 394a80 80 0 1 1 80-80 80 80 0 0 1-80 80z" horiz-adv-x="1000" />

<glyph glyph-name="diet-menu" unicode="&#xe851;" d="M625-132h-351a30 30 0 0 0-24 48c34 47 56 98 65 152 15 93-13 170-36 215-57-6-112 3-154 28-31 18-51 42-57 68-7 30 4 65 31 97 19 22 44 42 73 57-20 46-20 93 3 125 18 26 49 43 88 49 40 7 83 0 123-18a164 164 0 0 0 28 67 170 170 0 0 0 115 71c49 6 99-9 138-42a167 167 0 0 0 53-79c40 14 83 16 121 5 31-9 55-27 67-50 21-42-1-101-50-144 33-29 68-72 58-119-7-39-44-72-101-91-36-11-77-17-121-17h-2c-33-40-86-120-84-226 1-52 16-103 43-151a30 30 0 0 0-26-45z m-296 60h248a373 373 0 0 0-29 135c-2 76 21 141 48 191a203 203 0 0 0-121-41h0a204 204 0 0 0-117 34c17-50 28-115 16-188a405 405 0 0 0-45-131z m-2 425a30 30 0 0 0 26-15c24-41 71-66 121-65h0c51 0 96 26 119 67a30 30 0 0 0 31 15c142-21 227 24 234 55 4 21-31 58-67 83a30 30 0 0 0 2 51c54 31 68 76 61 90-3 6-12 14-30 19-34 11-76 4-112-17a30 30 0 0 0-45 25c-1 30-15 58-39 78-25 22-59 32-90 28a110 110 0 0 1-75-45 102 102 0 0 1-17-80 30 30 0 0 0-48-30c-38 29-84 42-126 36-22-3-40-12-48-24-13-18-7-54 15-87a30 30 0 0 0-14-44c-69-29-104-78-98-100 1-7 10-19 28-30 32-19 92-32 164-11a30 30 0 0 0 8 1z" horiz-adv-x="1000" />

<glyph glyph-name="dishwasher" unicode="&#xe852;" d="M466-136a290 290 0 0 0-95 16 320 320 0 0 0-84-12c-61-1-118 17-165 51-54 39-91 97-105 168a335 335 0 0 0-5 105c5 35 29 156 146 218 88 47 175 31 213 20a289 289 0 0 0 95 16c160 0 291-130 291-291s-131-291-291-291z m0 522a231 231 0 1 1 231-231 231 231 0 0 1-231 231z m-183-4a214 214 0 0 1-97-25c-94-50-112-153-114-173-1-6-18-142 85-217 43-31 90-39 127-39a291 291 0 0 0-1 454z m134-388a30 30 0 0 0-7 1c-78 19-134 84-137 159-2 42 15 86 46 119a185 185 0 0 0 130 59 30 30 0 1 0 2-60 125 125 0 0 1-88-40c-20-21-31-49-30-76 2-47 40-90 91-102a30 30 0 0 0-7-60z m98 0a30 30 0 0 0-14 57l33 17a30 30 0 0 0 27-54l-33-16a30 30 0 0 0-13-4z m81 82a30 30 0 0 0-26 45 85 85 0 0 1 13 48c-3 47-48 73-50 74a30 30 0 0 0 29 52c8-4 76-44 81-122a145 145 0 0 0-21-82 30 30 0 0 0-26-15z m224 274c-33 0-65 15-92 44a226 226 0 0 0-47 80c-36 106 13 246 119 342a30 30 0 0 0 40 0c105-96 154-236 119-342a226 226 0 0 0-47-80c-27-29-59-44-92-44z m0 402c-73-78-108-183-82-259 13-40 47-83 82-83s68 43 82 83c25 76-9 181-82 259z m-438-291a30 30 0 0 0-30 30v34a30 30 0 1 0 60 0v-34a30 30 0 0 0-30-30z m-234 90a30 30 0 0 0-30 30v34a30 30 0 0 0 60 0v-34a30 30 0 0 0-30-30z m175 16h-31a30 30 0 0 0 0 60h31a30 30 0 0 0 0-60z m149 1h-31a30 30 0 1 0 0 60h31a30 30 0 0 0 0-60z m-90 72a30 30 0 0 0-30 30v34a30 30 0 0 0 60 0v-34a30 30 0 0 0-30-30z m-293 17h-31a30 30 0 0 0 0 60h31a30 30 0 0 0 0-60z m149 1h-31a30 30 0 0 0 0 60h31a30 30 0 0 0 0-60z m-90 72a30 30 0 0 0-30 30v34a30 30 0 0 0 60 0v-34a30 30 0 0 0-30-30z" horiz-adv-x="1000" />

<glyph glyph-name="dislike" unicode="&#xe853;" d="M414-144c-43 0-72 32-87 48l0 0c-73 80-68 217-62 272l15 139h-147a31 31 0 0 0-4 0c-40 6-72 23-92 51-20 26-23 55-24 68-9 90-4 252-2 284a31 31 0 0 0 0 3c2 17 13 59 49 88a124 124 0 0 0 61 25 30 30 0 0 0 4 0h426a30 30 0 0 0 30-30v-459a30 30 0 0 0-30-30h-52a1289 1289 0 0 1 6-386 30 30 0 0 0-5-21c-7-11-34-48-79-52-3 0-5 0-7 0z m-279 519h178a30 30 0 0 0 30-33l-18-172c-4-37-12-162 46-225l0 0c11-12 28-30 45-29 12 1 21 9 27 16a1348 1348 0 0 0 0 418 30 30 0 0 0 30 25h48v399h-394a64 64 0 0 1-30-13c-19-15-25-37-27-47-1-35-6-190 3-275 1-8 2-24 12-38 13-17 34-24 50-26z m826-65h-310a30 30 0 0 0-30 30v464a30 30 0 0 0 30 30h310a30 30 0 0 0 30-30v-464a30 30 0 0 0-30-30z m-280 60h250v404h-250z" horiz-adv-x="1000" />

<glyph glyph-name="distance" unicode="&#xe854;" d="M970-134a30 30 0 0 0-26 16l-136 256-135-256a30 30 0 1 0-53 28l159 302a30 30 0 0 0-1 8v96l-50-125a30 30 0 0 0-56 22l108 270a30 30 0 0 0 56 0l108-270a30 30 0 0 0-56-22l-50 125v-96a30 30 0 0 0-1-8l160-302a30 30 0 0 0-27-44z m-612 0a30 30 0 0 0-26 16l-136 256-135-256a30 30 0 0 0-53 28l159 302a30 30 0 0 0-1 8v128l-68-158a30 30 0 0 0-58 12 30 30 0 0 0 3 12l117 270a30 30 0 0 0 55 0l4-11a30 30 0 0 0 7-15l106-244a30 30 0 0 0 2-12 30 30 0 0 0-57-12l-51 117v-87a30 30 0 0 0-1-8l160-302a30 30 0 0 0-27-44z m198 504a30 30 0 0 0-21 51l21 21h-216a30 30 0 0 0-18 54l72 54a30 30 0 1 0 36-48h198a30 30 0 0 0 21-51l-72-72a30 30 0 0 0-21-9z m-351 144a111 111 0 1 0 111 111 111 111 0 0 0-111-111z m0 162a51 51 0 1 1 51-51 51 51 0 0 1-51 51z m612-144a111 111 0 1 0 111 111 111 111 0 0 0-111-111z m0 162a51 51 0 1 1 51-51 51 51 0 0 1-51 51z" horiz-adv-x="1000" />

<glyph glyph-name="diving" unicode="&#xe855;" d="M930-124h-527a30 30 0 0 0-30 30v145a290 290 0 0 0-69 19 30 30 0 1 0 23 55 232 232 0 0 1 97-17 228 228 0 0 1 78 17 30 30 0 0 0 23-55 287 287 0 0 0-92-21v-113h467l4 870a30 30 0 0 0 30 30h0a30 30 0 0 0 30-30l-4-900a30 30 0 0 0-30-30z m-219 268h-264a30 30 0 0 0-30 26c-4 35-9 63-14 84-4-21-9-49-14-84a30 30 0 0 0-30-26h-263a30 30 0 0 0-30 26l-44 306a30 30 0 0 0 30 35h702a30 30 0 0 0 30-35l-44-306a30 30 0 0 0-29-26z m-238 60h212l35 246h-633l35-246h211c3 20 7 42 12 63 10 46 22 90 58 90s49-44 59-90c4-21 8-43 11-63z" horiz-adv-x="1000" />

<glyph glyph-name="dots-hor" unicode="&#xe856;" d="M26 336a135 135 0 1 0 135-135 135 135 0 0 0-135 135z m477-135a135 135 0 1 1-135 135 135 135 0 0 1 135-135z m342 0a135 135 0 1 1-135 135 135 135 0 0 1 135-135z" horiz-adv-x="1000" />

<glyph glyph-name="dots-ver" unicode="&#xe857;" d="M499 826a135 135 0 1 0-135-135 135 135 0 0 0 135 135z m-135-477a135 135 0 1 1 135 135 135 135 0 0 1-135-135z m0-342a135 135 0 1 1 135 135 135 135 0 0 1-135-135z" horiz-adv-x="1000" />

<glyph glyph-name="dryer" unicode="&#xe858;" d="M856-152h-701a30 30 0 0 0-30 30v936a30 30 0 0 0 30 30h701a30 30 0 0 0 30-30v-936a30 30 0 0 0-30-30z m-671 60h641v732h-641z m0 792h641v84h-641z m320-708c-160 0-291 131-291 291s131 291 291 291 291-130 291-291-130-291-291-291z m-216 209a231 231 0 0 1 432 0 416 416 0 0 1-208 61c-102 2-181-34-224-61z m216 313a231 231 0 0 1-231-231q0-10 1-20c52 28 135 61 240 59a475 475 0 0 0 220-59c1 6 1 13 1 20a231 231 0 0 1-231 231z" horiz-adv-x="1000" />

<glyph glyph-name="dvd" unicode="&#xe859;" d="M493-128c-116 0-225 13-308 38-120 36-145 84-145 118s25 82 145 118c83 25 192 38 308 38s225-13 308-38c120-36 145-84 145-118s-25-82-145-118c-83-25-192-38-308-38z m0 252c-110 0-213-13-290-36-76-22-103-48-103-60s27-38 103-60c77-23 180-36 290-36s213 13 291 36c75 22 102 48 102 60s-27 38-102 60c-78 23-181 36-291 36z m-5-180c-47 0-92 6-126 16-46 13-70 35-70 63s24 50 70 64c34 10 79 16 126 16s91-6 125-16c47-14 70-35 70-64s-23-50-70-63c-34-10-78-16-125-16z m-126 79c20-9 64-19 126-19s105 10 126 19c-21 9-64 20-126 20s-106-11-126-20z m263-7h0z m142 193a341 341 0 0 0-63 6 30 30 0 0 0-24 29v414a30 30 0 0 0 60 0v-388c36-3 95-2 136 33 37 32 41 77 46 176 5 95 9 176-47 229-25 23-57 38-96 46h-101l-125-499a30 30 0 0 0-58 0l-130 522a30 30 0 0 0 58 14l101-405 101 405a30 30 0 0 0 29 23h127a29 29 0 0 0 6 0c52-10 95-31 129-62 35-33 55-75 64-130 7-45 4-94 2-145-5-102-9-169-68-220-45-39-102-48-147-48z m-610 0a284 284 0 0 0-56 6 30 30 0 0 0-24 29v405a30 30 0 0 0 60 0v-379c30-3 65 0 98 18 82 46 90 161 93 210 2 32 8 119-48 197a260 260 0 0 1-58 58l-170-3a30 30 0 1 0 0 60l179 3a30 30 0 0 0 17-5 320 320 0 0 0 80-78c69-96 62-201 60-236-2-28-5-76-21-124-20-62-54-107-102-134-37-20-75-27-108-27z" horiz-adv-x="1000" />

<glyph glyph-name="check" unicode="&#xe85a;" d="M821-120h-654a140 140 0 0 0-139 139v654a140 140 0 0 0 139 139h654a140 140 0 0 0 139-139v-654a140 140 0 0 0-139-139z m-654 882a89 89 0 0 1-89-89v-654a89 89 0 0 1 89-89h654a89 89 0 0 1 89 89v654a89 89 0 0 1-89 89z m228-684a25 25 0 0 0-19 9l-162 198a25 25 0 1 0 38 32l143-174 376 464a25 25 0 0 0 39-32l-396-488a25 25 0 0 0-19-9z" horiz-adv-x="1000" />

<glyph glyph-name="elevator" unicode="&#xe85b;" d="M954-144h-900a30 30 0 0 0-30 30v918a30 30 0 0 0 30 30h900a30 30 0 0 0 30-30v-918a30 30 0 0 0-30-30z m-870 60h840v858h-840z m492 48a30 30 0 0 0-30 30v684a30 30 0 0 0 60 0v-573l70 120a30 30 0 0 0 52-30l-126-216a30 30 0 0 0-26-15z m-162 0a30 30 0 0 0-30 30v573l-70-120a30 30 0 0 0-52 30l126 216a30 30 0 0 0 56-15v-684a30 30 0 0 0-30-30z" horiz-adv-x="1000" />

<glyph glyph-name="entertaiment" unicode="&#xe85c;" d="M451-122c-31 0-66 5-102 16-64 20-129 57-178 101-66 58-110 136-129 227-18 88-12 184 19 277a30 30 0 0 0 43 17c37-19 97-43 171-43h1a337 337 0 0 1 80 10 30 30 0 0 0 2 13l90 252a30 30 0 0 0 51 9c24-29 89-97 198-115 113-19 199 28 230 49a30 30 0 0 0 47-23 754 754 0 0 0-56-338c-72-172-191-277-279-336-17-37-43-69-83-91-30-17-66-25-105-25z m-342 570c-43-160-5-314 101-408 43-38 102-71 157-88 45-14 109-25 160 3 72 40 81 137 89 215h0c13 136-31 256-77 341-49-42-139-98-263-98h-1a426 426 0 0 0-166 35z m566-284h0c-2-22-4-48-9-74a688 688 0 0 1 196 264 692 692 0 0 1 53 262 389 389 0 0 0-166-39 374 374 0 0 0-62 6c-93 15-159 61-199 99l-62-174a365 365 0 0 1 99 71 30 30 0 0 0 47-5c80-133 116-275 103-410z m-277-143h0c-32 0-65 9-95 27a30 30 0 0 0 30 52c42-24 87-26 114-4 10 8 17 20 21 34a30 30 0 0 0 58-17c-8-26-22-47-40-63-24-19-54-29-88-29z m-256 238a30 30 0 0 0-29 38c6 22 19 40 36 52 37 25 93 20 137-12a30 30 0 0 0-36-48c-26 19-54 20-67 11-7-5-10-13-12-18a30 30 0 0 0-29-23z m268 57a30 30 0 0 0-29 38c6 22 19 40 36 52 37 25 93 20 137-12a30 30 0 0 0-36-48c-26 19-54 20-67 11-7-5-10-13-11-19a30 30 0 0 0-30-22z m350 78a97 97 0 0 0-46 12c-42 22-50 67-52 76a30 30 0 1 0 60 8c0-1 3-23 20-32 17-8 39-3 54 13a30 30 0 1 0 44-42 111 111 0 0 0-80-35z" horiz-adv-x="1000" />

<glyph glyph-name="el-kettle" unicode="&#xe85d;" d="M782-150h-698a30 30 0 1 0 0 60h698a30 30 0 0 0 0-60z m0 90h-698a30 30 0 0 0-30 29c-2 130 7 250 27 358a1195 1195 0 0 0 40 155l-87 234a30 30 0 0 0 28 40h211c66 73 122 90 160 90 45 0 116-24 199-138q7-11 15-22c124 20 245-29 304-124 41-67 52-156 31-245a398 398 0 0 0-62-137 392 392 0 0 0-109-104q2-52 1-107a30 30 0 0 0-30-29z m-668 60h638c0 207-30 481-169 672q-9 13-18 24a30 30 0 0 0-9 1 455 455 0 0 1-246 0 30 30 0 0 0-9-1q-9-11-18-24c-139-191-170-465-169-672z m567 630c47-86 81-187 103-303a1581 1581 0 0 0 23-180 340 340 0 0 1 116 184c18 74 9 146-24 199-42 69-127 106-218 100z m-576 66l49-130a776 776 0 0 0 72 130z m328 90c-9 0-26-2-48-14a521 521 0 0 0 95 0c-22 12-38 14-47 14z" horiz-adv-x="1000" />

<glyph glyph-name="extra-wc" unicode="&#xe85e;" d="M437-142h-180a30 30 0 0 0-30 30v176a273 273 0 0 0-76 46c-88 75-116 200-74 318a30 30 0 0 0 28 20h37c-19 43-30 89-30 133 0 62 20 118 57 162 14 17 92 101 206 92 63-5 122-38 166-92 35-44 54-100 54-162 0-44-10-89-29-133h39a30 30 0 0 0 29-22 341 341 0 0 0 9-106c-4-74-33-139-82-188h0a321 321 0 0 0-94-64v-180a30 30 0 0 0-30-30z m-150 60h120v124h-120z m56 184h1c92 0 152 50 174 72h0c74 74 69 171 62 214h-453c-24-88-1-178 63-233 58-49 132-53 153-54z m-134 346h291c48 93 46 193-6 257h0c-19 24-61 65-124 70-85 7-144-58-155-70-54-65-56-166-6-257z m603-50a30 30 0 0 0-30 30v111l-113-2h-1a30 30 0 0 0 0 60l114 2v117a30 30 0 0 0 60 0v-116l114 2a30 30 0 1 0 1-60l-115-2v-112a30 30 0 0 0-30-30z" horiz-adv-x="1000" />

<glyph glyph-name="eye-close" unicode="&#xe85f;" d="M341 70a30 30 0 0 0-29 39l48 139a575 575 0 0 0-181 84l-102-110a30 30 0 0 0-44 41l98 105c-73 61-112 121-116 128a30 30 0 0 0 50 32c4-5 44-67 121-127a30 30 0 0 0 11-7 29 29 0 0 0 4-5c73-52 173-99 301-99 280 2 426 232 433 242a30 30 0 1 0 51-32c-5-7-43-66-114-127l100-108a30 30 0 1 0-43-41l-105 112a577 577 0 0 0-173-84l47-138a30 30 0 1 0-56-19l-50 143a549 549 0 0 0-90-8 550 550 0 0 0-82 6l-51-146a30 30 0 0 0-28-20z" horiz-adv-x="1000" />

<glyph glyph-name="eye" unicode="&#xe860;" d="M502-19a476 476 0 0 0-204 46c-53 25-104 61-151 105-82 77-125 156-130 165a30 30 0 0 0 0 28 30 30 0 0 0 2 4c4 9 47 94 128 176 46 47 96 85 149 112 66 34 135 51 207 52a455 455 0 0 0 209-49c53-27 104-64 151-111 81-81 125-165 129-174a30 30 0 0 0 0-27 31 31 0 0 0-2-6c-5-9-48-89-128-166-47-45-97-80-149-106a477 477 0 0 0-207-49z m-425 331c34-56 179-271 425-271h3c253 2 398 229 427 280-33 58-178 288-425 288h-3c-253-2-398-244-427-297z m426-171a175 175 0 1 0 175 175 175 175 0 0 0-175-175z m0 290a115 115 0 1 1 115-115 115 115 0 0 1-115 115z" horiz-adv-x="1000" />

<glyph glyph-name="facilities" unicode="&#xe861;" d="M374-134a30 30 0 0 0-30 30v378a30 30 0 0 0 60 0v-378a30 30 0 0 0-30-30z m220 109a30 30 0 0 0-30 30v34a30 30 0 0 0 60 0v-34a30 30 0 0 0-30-30z m-59 106h-31a30 30 0 0 0 0 60h31a30 30 0 0 0 0-60z m149 1h-31a30 30 0 0 0 0 60h31a30 30 0 0 0 0-60z m-90 72a30 30 0 0 0-30 30v34a30 30 0 0 0 60 0v-34a30 30 0 0 0-30-30z m130 162a30 30 0 0 0-30 30l-1 129a30 30 0 0 0 30 30h0a30 30 0 0 0 30-30l1-129a30 30 0 0 0-30-30z m-112 18h-154a30 30 0 0 0 0 60h154a30 30 0 0 0 0-60z m-324 0h-154a30 30 0 0 0 0 60h154a30 30 0 0 0 0-60z m84 90a30 30 0 0 0-30 30v360a30 30 0 0 0 60 0v-360a30 30 0 0 0-30-30z m407 90a30 30 0 0 0 0 60l85 1a30 30 0 0 0 0-60l-85-1z m-113 0h-85a30 30 0 0 0 0 60h85a30 30 0 0 0 0-60z m57 72a30 30 0 0 0-30 30v126a30 30 0 0 0 60 0v-126a30 30 0 0 0-30-30z" horiz-adv-x="1000" />

<glyph glyph-name="no-comission" unicode="&#xe862;" d="M636-52a30 30 0 0 0-25 46l292 468a30 30 0 1 0 51-32l-292-468a30 30 0 0 0-26-14z m259 0a105 105 0 1 0 104 105 105 105 0 0 0-104-105z m0 149a45 45 0 1 1 44-44 45 45 0 0 1-44 44z m-636-139h-3c-2 0-49 2-96 23-64 29-110 101-136 214a827 827 0 0 0-20 155c-2 116 14 318 142 370a325 325 0 0 0 111 22c2 0 57 0 114-24h0c95-40 145-169 144-373 0-79-10-138-18-173-23-101-65-165-126-191a305 305 0 0 0-112-23z m-2 724c-1 0-45 0-88-18-99-40-106-232-105-313a782 782 0 0 1 19-143c15-64 44-146 102-172 35-16 72-18 73-18a245 245 0 0 1 89 19c99 41 108 246 108 308 0 24 1 98-15 170-18 80-49 130-93 148h0c-44 18-90 19-90 19z m4-589c-1 0-2 0-2 0-4 0-26 2-46 20-15 14-37 43-48 142-6 51-7 96-7 97a996 996 0 0 0 5 114c7 67 22 108 46 127 24 19 47 20 51 20s29-1 52-21h0c24-20 39-60 46-127 6-50 6-99 6-115a987 987 0 0 0-6-110c-8-67-22-108-46-127-22-18-43-20-51-20z m1 60z m-2 400a30 30 0 0 1-13-6c-11-9-30-60-29-194 0 0 1-44 6-91 10-85 27-102 29-104a22 22 0 0 1 9-5 27 27 0 0 1 12 6c12 10 30 69 30 191 0 135-19 187-30 196h0a31 31 0 0 1-14 7z m418-278a105 105 0 1 0 105 105 105 105 0 0 0-105-105z m0 150a45 45 0 1 1 45-45 45 45 0 0 1-45 45z" horiz-adv-x="1000" />

<glyph glyph-name="fan" unicode="&#xe863;" d="M190-87a138 138 0 0 0-21 2c-66 11-126 71-133 134-7 53 22 112 79 161 51 44 120 78 200 99a201 201 0 0 0 0 119c-80 21-149 55-200 99-56 49-85 108-79 161 8 63 68 123 133 134 54 8 113-15 163-65 49-49 85-120 103-200a201 201 0 0 0 144 0c18 80 55 150 103 198 50 50 110 74 163 65 65-10 125-70 133-134 6-53-22-111-79-160-51-44-120-78-200-99a201 201 0 0 0 0-117c80-21 148-55 199-99 57-49 86-108 79-161-8-63-67-123-133-134-53-8-112 15-162 65-49 49-86 120-104 200a201 201 0 0 0-143 0c-18-81-55-152-104-201-43-43-93-67-141-67z m153 341c-77-18-143-50-189-90-42-35-63-75-59-108 5-37 44-75 83-82a82 82 0 0 1 13-1c70 0 158 88 187 230a30 30 0 0 0 4 9 203 203 0 0 0-39 42z m289-42a30 30 0 0 0 3-8c30-151 128-240 200-228 39 6 78 44 83 82 4 32-18 72-59 108-46 39-112 70-187 88a203 203 0 0 0-40-42z m-125 298a141 141 0 1 1 141-141 141 141 0 0 1-141 141z m126 16a203 203 0 0 0 40-44c75 18 141 50 187 89 41 36 62 75 58 108-4 37-43 76-83 82-72 12-169-77-200-228a30 30 0 0 0-2-7z m-441 237a80 80 0 0 1-13-1c-40-6-79-44-83-82-4-32 17-72 59-108 45-39 111-71 187-89a203 203 0 0 0 40 43 30 30 0 0 0-3 8c-29 142-117 229-187 229z" horiz-adv-x="1000" />

<glyph glyph-name="fast-reg-in" unicode="&#xe864;" d="M564-151c-8 0-15 0-21 1-44 1-180 5-208 84-12 35-1 81 31 126 37 52 106 107 191 107h0c85 0 154-55 191-106 32-45 43-91 30-127-25-74-146-85-214-85z m-7 258c-62 0-115-44-142-81-22-32-28-59-23-72 3-9 24-40 153-44 92-3 167 15 177 44 4 13-1 41-23 72-27 37-80 81-142 81z m313 30a30 30 0 0 0-21 9l-89 90a30 30 0 0 0 42 42l55-55 75 222a30 30 0 1 0 56-18l-89-269a30 30 0 0 0-29-21z m-313 47a120 120 0 1 0 120 121 120 120 0 0 0-120-121z m0 181a60 60 0 1 1 60-60 60 60 0 0 1-60 60z m-299-13a254 254 0 0 0-28 2c-22 2-138 20-193 125-23 45-31 96-21 149a270 270 0 0 0 62 127c10 12 107 117 236 82 46-12 88-41 119-81a244 244 0 0 0 35-65l8 12a30 30 0 0 0 50-33l-49-73a30 30 0 0 0-55 16c-3 79-54 147-123 166-39 11-80 4-120-19a237 237 0 0 1-56-45c-43-48-71-134-32-209 40-78 129-91 146-93 83-9 142 38 159 53a30 30 0 0 0 40-44c-19-17-84-70-178-70z m85 196h-97a30 30 0 0 0-30 30v129a30 30 0 1 0 60 0v-99h67a30 30 0 0 0 0-60z" horiz-adv-x="1000" />

<glyph glyph-name="feather-pillow" unicode="&#xe865;" d="M942-124a31 31 0 0 0-7 1 1797 1797 0 0 1-868 0 30 30 0 0 0-37 34 2695 2695 0 0 1 36 445 2699 2699 0 0 1-36 427 30 30 0 0 0 37 34 1798 1798 0 0 1 443-53 1799 1799 0 0 1 425 53 30 30 0 0 0 36-36 1792 1792 0 0 1 0-868 30 30 0 0 0-29-37z m-845 873a2759 2759 0 0 0 29-393 2758 2758 0 0 0-29-411 1857 1857 0 0 0 805 1 1851 1851 0 0 0 0 802 1859 1859 0 0 0-392-44 1859 1859 0 0 0-413 45z m611-675a30 30 0 0 0-12 2 717 717 0 0 0-148 86q-5 4-11 9c-115-13-228 41-285 142-59 103-47 235 30 328a30 30 0 0 0 29 11c46-10 160-44 237-161 82-123 61-253 53-290 0-1 0-2-1-3a660 660 0 0 1 120-66 30 30 0 0 0-12-58z m-391 514c-51-72-57-169-13-245 35-62 97-102 165-112a753 753 0 0 0-142 204 30 30 0 0 0 54 26 687 687 0 0 1 166-221c6 47 7 134-49 218-56 85-139 119-181 130z" horiz-adv-x="1000" />

<glyph glyph-name="fire-alarm" unicode="&#xe866;" d="M504-76c-6 0-12 0-18 0-85 3-168 25-245 66a592 592 0 0 0-121 86 30 30 0 0 0 9 50l117 45-10 72-160-28a30 30 0 0 0-35 26l-35 285a30 30 0 0 0 13 29c98 66 258 145 467 149a856 856 0 0 0 322-56 884 884 0 0 0 181-93 30 30 0 0 0 13-30l-52-288a30 30 0 0 0-37-24l-127 29-21-86 111-29a30 30 0 0 0 12-51c-50-47-187-152-384-152z m-306 165c58-44 158-101 290-105 142-5 252 53 315 100l-81 21a30 30 0 0 0-22 36l35 144a30 30 0 0 0 36 22l125-29 43 238c-85 54-245 132-452 128-184-4-327-70-419-129l29-236 159 29a30 30 0 0 0 35-26l17-126a30 30 0 0 0-18-32z m427 33h-242a30 30 0 0 0-30 26l-17 144a30 30 0 0 0 22 33 640 640 0 0 0 309 0 30 30 0 0 0 22-36l-34-144a30 30 0 0 0-30-23z m-216 60h193l22 91a580 580 0 0 1-226 0z" horiz-adv-x="1000" />

<glyph glyph-name="fire-extinguisher" unicode="&#xe867;" d="M850-148h-414a30 30 0 0 0-30 30v688a30 30 0 0 0 30 30h114v57a31 31 0 0 0-5 2c-119 81-252 95-345 38-76-47-119-136-127-264-6-105 13-197 14-201 35-158 133-261 189-308a30 30 0 0 0-39-46c-61 52-169 166-208 341-4 16-84 392 139 529 58 35 128 50 203 41 60-7 121-28 179-62v34a30 30 0 0 0 30 30h126a30 30 0 0 0 25-14l218 70a30 30 0 0 0 39-29v-215a30 30 0 0 0-36-29l-80 17a30 30 0 0 0 8-21v-688a30 30 0 0 0-30-30z m-384 60h354v628h-354z m270 688h92l-92 19z m-126 0h66v131h-66z m126 80l192-40v137l-192-61z" horiz-adv-x="1000" />

<glyph glyph-name="fireplace" unicode="&#xe868;" d="M952-138h-900a30 30 0 0 0-30 30v702a30 30 0 0 0 30 30h204v186a30 30 0 0 0 30 30h428a30 30 0 0 0 30-30v-186h208a30 30 0 0 0 30-30v-702a30 30 0 0 0-30-30z m-870 60h840v642h-840z m234 702h368v156h-368z m173-690a263 263 0 0 0-56 6c-93 21-132 70-147 108-23 54-8 105-1 128a240 240 0 0 0 62 102 30 30 0 0 0 50-28c-8-31 1-62 23-76 19-12 45-11 51-5 4 4-4 29-8 41-8 28-19 62-17 103 3 69 43 136 118 201a30 30 0 0 0 47-35c-21-46-27-88-17-123 10-35 32-54 57-77 29-26 62-55 70-107 14-83-44-151-62-170-54-56-122-68-170-68z m-143 237q-2-6-4-12c-5-17-15-54-1-88 10-24 37-57 105-73 11-2 106-22 170 46 9 10 56 61 46 118-5 32-25 50-51 73-28 25-59 53-74 104a189 189 0 0 0-8 46q-22-38-23-75c-2-30 7-58 14-82 11-34 22-70-4-99-31-34-91-29-129-5a113 113 0 0 0-41 47z" horiz-adv-x="1000" />

<glyph glyph-name="fishing" unicode="&#xe869;" d="M42-142a30 30 0 0 0-28 42 1810 1810 0 0 0 142 269 1769 1769 0 0 0 267 327 1750 1750 0 0 0 165 139 79 79 0 0 0 25 18 1736 1736 0 0 0 317 181 30 30 0 0 0 42-28v-859a30 30 0 1 0-60 0v812a1678 1678 0 0 1-214-120 79 79 0 0 0 25-58c0-43-35-78-78-78a78 78 0 0 0-71 46q-56-46-109-97c-3-3-6-6-10-9a98 98 0 0 0 77-96c0-54-44-98-97-98a97 97 0 0 0-94 72 1703 1703 0 0 1-114-151 142 142 0 0 0 26 2c80 0 145-66 145-147s-65-147-145-147c-64 0-118 41-137 99q-25-49-46-101a30 30 0 0 0-28-18z m211 254c-47 0-85-39-85-87s38-87 85-87 85 39 85 87-39 87-85 87z m182 273c-21 0-37-17-37-38s16-38 37-38 37 17 37 38-17 38-37 38z m195 206a19 19 0 0 1-3-10 18 18 0 1 1 18 19 17 17 0 0 1-3 0c-4-3-8-6-12-9z" horiz-adv-x="1000" />

<glyph glyph-name="flag" unicode="&#xe86a;" d="M64-116a30 30 0 0 0-30 30v882a30 30 0 0 0 40 28l900-333a30 30 0 0 0-5-58l-875-152v-367a30 30 0 0 0-30-30z m30 869v-411l755 131z" horiz-adv-x="1000" />

<glyph glyph-name="food" unicode="&#xe86b;" d="M748-148h-44a77 77 0 0 0-77 77v365a77 77 0 0 0 69 77v79a167 167 0 0 0-137 131 29 29 0 0 0-1 5c-4 59 5 114 24 159 21 48 52 81 92 95h0a125 125 0 0 0 71 5c80-18 137-121 139-257a30 30 0 0 0 0-7 168 168 0 0 0-128-129c0 0 0-1 0-1v-80a77 77 0 0 0 69-77v-365a77 77 0 0 0-77-77z m-44 459a17 17 0 0 1-17-17v-365a17 17 0 0 1 17-17h44a17 17 0 0 1 17 17v365a17 17 0 0 1-17 17h-16a31 31 0 0 0-12 0z m-86 280a106 106 0 0 1 103-83h2a107 107 0 0 1 101 82c-3 116-49 187-93 197a66 66 0 0 1-37-3c-50-19-81-98-76-193z m-300-739h-44a77 77 0 0 0-77 77v371a77 77 0 0 0 68 76v85a167 167 0 0 0-132 132 31 31 0 0 0-1 6v219a30 30 0 0 0 60 0v-149h73l-2 148a30 30 0 0 0 30 30h0a30 30 0 0 0 30-30l2-148h73l-2 145a30 30 0 0 0 60 1l2-216a31 31 0 0 0 0-6c-14-68-68-120-133-132v-85a77 77 0 0 0 70-76v-371a77 77 0 0 0-77-77z m-44 465a17 17 0 0 1-17-17v-371a17 17 0 0 1 17-17h44a17 17 0 0 1 17 17v371a17 17 0 0 1-17 17z m-82 285c11-49 54-84 103-84h2c48 1 90 36 101 84l0 7h-206z" horiz-adv-x="1000" />

<glyph glyph-name="foot-bath" unicode="&#xe86c;" d="M856-128h-691a131 131 0 0 0-131 131v466c0 200 163 363 363 363h216c200 0 363-163 363-363v-477a121 121 0 0 0-120-120z m-761 615q-1-9-1-18v-466a71 71 0 0 1 71-71h691a60 60 0 0 1 60 60v477q0 9 0 18a32 32 0 0 0-4 2c-138 91-277 136-415 135-133-2-267-48-398-135a30 30 0 0 0-4-2z m302 285c-133 0-246-86-287-205 127 76 257 115 386 117 135 2 271-38 404-117-41 119-154 205-287 205z m298-809a129 129 0 0 0-17 2c-33 4-61 20-76 43-23 35-7 69 7 100 12 26 26 56 24 95h0c-2 42-19 73-35 100-17 30-36 64-14 98 27 40 89 38 122 30 11-2 67-18 92-70 19-40 5-73-8-105-10-24-21-51-25-91-4-39 1-69 6-93 6-31 12-63-16-88-15-13-36-21-60-21z m-2 243c2-54-16-94-29-123-12-25-16-36-12-42 5-8 19-15 34-17 14-2 25 1 29 5l0 0c2 4-1 20-3 32-5 27-12 63-7 110 5 49 19 82 30 108 12 30 16 41 9 56-14 29-51 38-52 38-25 6-53 2-58-5l0-1c0-5 10-23 16-34 17-30 41-71 43-128z m-396-243c-24 0-45 8-60 21-28 25-22 57-16 88 5 24 10 54 6 93-4 40-15 67-25 91-13 32-27 65-8 105 25 52 81 68 92 71 33 7 95 10 122-31h0c22-34 3-68-14-98-16-27-33-58-35-100-2-39 12-69 24-95 14-31 30-65 7-100-15-23-43-39-76-43a129 129 0 0 0-17-2z m-20 66l0 0c4-4 15-7 29-5 15 2 29 9 34 17 4 6 0 17-12 42-13 29-31 69-29 123 2 56 26 97 43 127 6 11 16 29 16 35l0 0c-5 7-33 11-58 5 0 0-38-9-52-38-7-15-3-26 9-56 11-26 25-59 30-108 5-47-2-83-7-110-2-12-5-28-3-32z m525 383a30 30 0 0 0 0 60h0a30 30 0 0 0 0-60z m-612 0a30 30 0 0 0 0 60h0a30 30 0 0 0 0-60z m378 18a30 30 0 0 0 0 60h0a30 30 0 0 0 0-60z m-144 0a30 30 0 0 0 0 60h0a30 30 0 0 0 0-60z m306 18a30 30 0 0 0 0 60h0a30 30 0 0 0 0-60z m-468 0a30 30 0 0 0 0 60h0a30 30 0 0 0 0-60z m378 18a30 30 0 0 0 0 60h0a30 30 0 0 0 0-60z m-288 0a30 30 0 0 0 0 60h0a30 30 0 0 0 0-60z" horiz-adv-x="1000" />

<glyph glyph-name="fork-des" unicode="&#xe86d;" d="M268-112a30 30 0 0 0-30 30v570a266 266 0 0 0-92 29 30 30 0 0 0-16 27v232a30 30 0 0 0 60 0v-213a205 205 0 0 1 48-14v167a30 30 0 0 0 60 0v-167a204 204 0 0 1 48 14v213a30 30 0 0 0 60 0v-232a30 30 0 0 0-16-27 266 266 0 0 0-92-29v-570a30 30 0 0 0-30-30z m396 102c-106 0-180 90-207 142-36 72-35 163 3 262 37 96 107 192 202 278a30 30 0 0 0 42-1c84-89 145-185 176-280 32-98 28-188-9-259-4-6-77-142-207-142z m17 618c-158-153-228-335-170-448 19-38 76-110 153-110h0c94 0 153 109 154 110 59 112 4 290-137 448z m-17-474a30 30 0 0 0-30 30v78h-78a30 30 0 0 0 0 60h78v78a30 30 0 0 0 60 0v-78h78a30 30 0 0 0 0-60h-78v-78a30 30 0 0 0-30-30z" horiz-adv-x="1000" />

<glyph glyph-name="fridge" unicode="&#xe86e;" d="M691-136a263 263 0 0 0-116 27c-48 25-82 63-99 111a207 207 0 0 0 1 138 225 225 0 0 0 75 102v413a157 157 0 0 0 36 123c26 29 59 46 92 46s66-17 92-46a157 157 0 0 0 36-123v-411a232 232 0 0 0 87-100c20-46 24-97 9-142h0c-29-90-123-134-203-138-4 0-7 0-10 0z m-79 411v-48a30 30 0 0 0-13-25c-62-40-89-116-67-180 25-71 104-100 166-98 45 2 126 25 149 97 21 66-15 143-83 179a30 30 0 0 0-16 27v48z m264-263h0z m-264 323h136v322a31 31 0 0 0 0 4 97 97 0 0 1-22 78c-13 15-31 25-46 25s-33-10-46-25a97 97 0 0 1-22-78 31 31 0 0 0 0-4z m-372-57a30 30 0 0 0-30 30v169l-135-78a30 30 0 1 0-30 52l127 73-125 73a30 30 0 0 0 30 52l133-77v150a30 30 0 0 0 60 0v-141l134 77a30 30 0 1 0 30-52l-142-82 143-82a30 30 0 1 0-30-52l-135 78v-160a30 30 0 0 0-30-30z" horiz-adv-x="1000" />

<glyph glyph-name="fruits" unicode="&#xe86f;" d="M481-144a160 160 0 0 0-140 236 160 160 0 0 0-142 236h-1a160 160 0 0 0-32 317 339 339 0 0 0-105 100 30 30 0 0 0 8 42c18 13 117 76 241 40 72-21 119-65 147-103a164 164 0 0 0 40 60c51 47 114 46 132 44a30 30 0 1 0-6-60c-11 1-52 2-84-28-25-23-37-59-32-94a160 160 0 0 0 128-113 160 160 0 1 0 153-205h-1a160 160 0 0 0-166-234 160 160 0 0 0-140-238z m0 260a100 100 0 1 1 100-100 100 100 0 0 1-100 100z m166 236a100 100 0 1 1 100-100 100 100 0 0 1-100 100z m-307 0a100 100 0 1 1 100-100 100 100 0 0 1-100 100z m141-176a160 160 0 0 0 26-2 159 159 0 0 0-14 33 159 159 0 0 0-13-31z m-1 152a159 159 0 0 0 13-31 159 159 0 0 0 14 33 163 163 0 0 0-27-2z m308 260a100 100 0 1 1 100-100 100 100 0 0 1-100 100z m-307 0a99 99 0 1 1 1 0z m-283 0a100 100 0 1 1 100-100 100 100 0 0 1-100 100z m437-145a159 159 0 0 0-14-33 161 161 0 0 0 27 2 159 159 0 0 0-13 31z m-295-29l-2-2h3c-1 1-1 1-1 2z m-27 185a161 161 0 0 0 27-37 160 160 0 0 0 27 38 352 352 0 0 0-54-1z m-183 154a270 270 0 0 1 94-72c78-35 154-23 197-10-19 31-59 78-127 98-70 21-130 1-164-16z" horiz-adv-x="1000" />

<glyph glyph-name="suitcase-tag" unicode="&#xe870;" d="M884-82h-766a124 124 0 0 0-66 32c-32 31-37 68-38 78v484c1 9 7 52 46 82a123 123 0 0 0 70 26h742c8 0 51 1 86-32a120 120 0 0 0 36-68v-504a131 131 0 0 0-110-98z m-147 701q-1 23-1 46a31 31 0 0 1 0 6 153 153 0 0 1-23 54c-30 45-79 58-116 57h-178c-36 1-85-12-116-57a152 152 0 0 1-22-54 29 29 0 0 1-1-6q0-23 1-46h60q-1 21-1 43a91 91 0 0 0 13 29c21 31 57 31 63 31 1 0 2 0 2 0h180c1 0 1 0 2 0 7 0 42 0 63-31a91 91 0 0 0 13-29q0-22 1-43z m-385-361v200a47 47 0 0 1-10 30 44 44 0 0 1-13 10q-20 14-39 28a34 34 0 0 0-10 10 36 36 0 0 0-5 19v64h-52c0-29 0-51 0-64 0-4 0-11-5-18a26 26 0 0 0-8-7l-42-30a41 41 0 0 1-14-12 42 42 0 0 1-8-24v-206c-1-2-4-21 10-34a40 40 0 0 1 28-12h126a43 43 0 0 1 30 12c13 13 12 31 12 34z m-104 233a39 39 0 1 1 39-39 39 39 0 0 1-39 39z" horiz-adv-x="1000" />

<glyph glyph-name="gaming-room" unicode="&#xe871;" d="M351-133a30 30 0 0 0-9 1 30 30 0 0 0-17 15l-303 605a30 30 0 0 0 13 40l605 303a30 30 0 0 0 40-14l303-604a30 30 0 0 0-14-40l-604-303a30 30 0 0 0-14-3z m-262 621l276-551 551 276-276 551z m309-470a66 66 0 1 0 66 66 66 66 0 0 0-66-66z m0 72a6 6 0 1 1 6-6 6 6 0 0 1-6 6z m108 216a66 66 0 1 0 66 66 66 66 0 0 0-66-66z m0 72a6 6 0 1 1 6-6 6 6 0 0 1-6 6z m90 197a66 66 0 1 0 66 66 66 66 0 0 0-66-66z m0 72a6 6 0 1 1 6-6 6 6 0 0 1-6 6z" horiz-adv-x="1000" />

<glyph glyph-name="garden" unicode="&#xe872;" d="M710-122a30 30 0 0 0-30 30v315c-132 19-234 133-234 270 0 151 123 273 273 273s273-122 273-273c0-143-111-261-252-272v-313a30 30 0 0 0-30-30z m9 828a213 213 0 1 1 213-213 213 213 0 0 1-213 213z m-369-828a30 30 0 0 0-30 30v173a147 147 0 1 0 60-3v-170a30 30 0 0 0-30-30z m9 432a87 87 0 1 1 87-87 87 87 0 0 1-87 87z m-207-432a30 30 0 0 0-30 30v486a30 30 0 0 0 2 11 147 147 0 1 0 57-4 30 30 0 0 0 1-7v-486a30 30 0 0 0-30-30z m9 756a87 87 0 1 1 87-87 87 87 0 0 1-87 87z" horiz-adv-x="1000" />

<glyph glyph-name="garden-furniture" unicode="&#xe873;" d="M620-134a30 30 0 0 0-30 30v271a30 30 0 0 0 30 30h269c0 0 0 1 0 1l43 298a30 30 0 0 0 60-8l-43-296v-296a30 30 0 0 0-60 0v241h-239v-241a30 30 0 0 0-30-30z m-342 74a30 30 0 0 0-30 30v315c-132 19-234 133-234 270 0 151 123 273 273 273 132 0 243-95 268-220 88-21 152-102 149-193-3-91-72-168-159-182v-191a30 30 0 1 0-60 0v191c-53 10-91 43-110 64a271 271 0 0 0-67-14v-313a30 30 0 0 0-30-30z m237 350q1 0 2 0l3 0c65 3 122 60 124 127 2 56-33 106-84 127a273 273 0 0 0-127-220c18-15 46-33 81-34z m-228 478a213 213 0 1 1 213-213 213 213 0 0 1-213 213z" horiz-adv-x="1000" />

<glyph glyph-name="gen-wc" unicode="&#xe874;" d="M397-142h-173a30 30 0 0 0-30 30v176a263 263 0 0 0-74 46c-85 75-113 200-72 318a30 30 0 0 0 29 20h34a334 334 0 0 0-28 133c0 62 19 118 54 162 14 17 89 101 200 92 62-5 119-38 162-93h0c34-44 52-99 52-161-1-44-10-89-28-133h36a30 30 0 0 0 29-22 351 351 0 0 0 9-106c-4-74-32-139-79-188h0a311 311 0 0 0-91-64v-180a30 30 0 0 0-30-30z m-143 60h113v124h-113z m52 184h2c87 0 146 50 167 72h0c71 74 66 171 60 214h-436c-24-89-1-178 61-233 55-49 126-53 146-53z m190 51h0z m-318 295h279c46 93 45 193-6 257h0c-18 24-58 66-119 70-81 7-138-57-148-70-53-65-55-166-6-257z m732-302a84 84 0 0 0-82 104l-68 55a84 84 0 1 0 0 138l66 54c0 1 0 2 0 3a84 84 0 1 0 25-60l-57-46a84 84 0 0 0 0-40l69-55a84 84 0 1 0 47-153z m0 108a24 24 0 1 1 24-24 24 24 0 0 1-24 24z m-198 144a24 24 0 1 1 24-24 24 24 0 0 1-24 24z m198 126a24 24 0 1 1 24-24 24 24 0 0 1-24 24z" horiz-adv-x="1000" />

<glyph glyph-name="golf" unicode="&#xe875;" d="M361-142a557 557 0 0 0-163 25c-61 19-114 47-147 79-30 28-45 59-45 90 0 49 38 95 111 137 47 27 97 46 123 55a30 30 0 1 0 20-57c-24-8-71-25-113-50-52-30-81-60-81-85 0-18 14-35 26-46 58-55 185-93 290-87 130 7 266 75 266 133-1 39-67 99-192 135a30 30 0 1 0 16 58c65-19 120-45 162-76 48-35 73-76 74-116 0-52-41-102-116-140-60-30-137-51-207-54q-12-1-24-1z m-4 219a30 30 0 0 0-30 30v699a30 30 0 0 0 41 28l615-252a30 30 0 0 0 0-56l-589-224a30 30 0 0 0-7-1v-194a30 30 0 0 0-30-30z m30 684v-397l503 191z" horiz-adv-x="1000" />

<glyph glyph-name="guest-protect" unicode="&#xe876;" d="M494-152a30 30 0 0 0-10 2c-106 36-195 95-262 175-241 282-95 679-89 696a30 30 0 0 0 36 18 302 302 0 0 1 151 0c78 21 128 68 151 95a30 30 0 0 0 46 0c23-27 73-74 151-95a302 302 0 0 1 151 0 30 30 0 0 0 36-18c6-17 151-414-89-696-67-80-156-139-262-175a30 30 0 0 0-10-2z m-313 827a874 874 0 0 1-36-207c-8-163 33-299 122-404 59-69 135-121 227-154 92 33 168 85 227 154 89 105 130 241 122 404a875 875 0 0 1-36 207 360 360 0 0 0-154 6 364 364 0 0 0-159 90 363 363 0 0 0-159-90 360 360 0 0 0-154-6z m316-565a228 228 0 1 0 228 228 228 228 0 0 0-228-228z m0 396a168 168 0 1 1 168-168 168 168 0 0 1-168 168z m72-162a30 30 0 0 0-30 30v36a30 30 0 0 0 60 0v-36a30 30 0 0 0-30-30z m-144 0a30 30 0 0 0-30 30v36a30 30 0 0 0 60 0v-36a30 30 0 0 0-30-30z" horiz-adv-x="1000" />

<glyph glyph-name="gym" unicode="&#xe877;" d="M818-146h-144a30 30 0 0 0-30 30v366h-282v-366a30 30 0 0 0-30-30h-144a30 30 0 0 0-30 30v132h-114a30 30 0 0 0-30 30v566a30 30 0 0 0 30 30h114v160a30 30 0 0 0 30 30h144a30 30 0 0 0 30-30v-348h282v348a30 30 0 0 0 30 30h144a30 30 0 0 0 30-30v-160h114a30 30 0 0 0 30-30v-566a30 30 0 0 0-30-30h-114v-132a30 30 0 0 0-30-30z m-114 60h84v858h-84z m-486 0h84v858h-84z m630 162h84v506h-84z m-774 0h84v506h-84z m288 234h282v84h-282z" horiz-adv-x="1000" />

<glyph glyph-name="hair-cond" unicode="&#xe878;" d="M750-128h-504a30 30 0 0 0-30 30v215l-36 612a30 30 0 0 0 1 10 136 136 0 0 0 47 69 131 131 0 0 0 47 23 30 30 0 0 0 8 1h423c12 0 68-1 104-48a121 121 0 0 0 24-61 32 32 0 0 0 0-6l-54-600v-215a30 30 0 0 0-30-30z m-474 60h444v120h-444z m0 180h444v6c0 1 0 2 0 3l54 598a61 61 0 0 1-12 29c-18 24-52 24-55 24h-420a71 71 0 0 1-23-12 75 75 0 0 1-24-33l36-607c0-1 0-1 0-2z m402 66h-360a30 30 0 0 0-30 30v432a30 30 0 0 0 30 30h360a30 30 0 0 0 30-30v-432a30 30 0 0 0-30-30z m-330 60h300v372h-300z" horiz-adv-x="1000" />

<glyph glyph-name="hair-dryer" unicode="&#xe879;" d="M384 20h-126a30 30 0 0 0-27 17l-162 324a30 30 0 0 0-3 9c-25 18-48 43-54 76-5 36 8 91 104 151 177 111 465 7 549-28a30 30 0 0 0 19-27v-121a30 30 0 0 0-17-28c-72-33-146-58-215-73-63-14-122-20-176-17l134-238a30 30 0 0 0-26-45z m-107 60h56l-131 233a391 391 0 0 0-49 14z m38 507c-61 0-120-11-167-40-52-33-80-67-76-91 5-34 69-60 89-68 157-64 365 9 463 52v81c-56 22-186 66-309 66z m339-166h0z m234-113a30 30 0 0 0-9 2l-162 54a30 30 0 1 0 19 57l162-54a30 30 0 0 0-10-59z m-108 144a30 30 0 0 0 0 60l171 1h0a30 30 0 0 0 0-60l-171-1z m-54 90a30 30 0 0 0-9 59l162 54a30 30 0 0 0 19-57l-162-54a30 30 0 0 0-10-2z" horiz-adv-x="1000" />

<glyph glyph-name="hamam" unicode="&#xe87a;" d="M956-123h-918a30 30 0 0 0-30 30v121a30 30 0 0 0 30 30h317l-212 49a30 30 0 0 0-11 53l143 111-25 25a140 140 0 1 0 39 45l216-215 159 174a30 30 0 0 0 22 10h0a30 30 0 0 0 22-10l198-216a30 30 0 0 0 7-26h43a30 30 0 0 0 30-30v-121a30 30 0 0 0-30-30z m-888 60h858v61h-858z m456 121h325l-163 178-158-174a29 29 0 0 0-4-4z m-122 0h86a32 32 0 0 0-3 3l-168 167-99-77 173-40a30 30 0 0 0 11-53z m-236 430a80 80 0 1 1 80-80 80 80 0 0 1-80 80z m598-76a30 30 0 0 0-23 49c82 98 70 125 69 128-3 6-15 9-27 13-20 6-48 14-63 41-31 55 17 128 56 178a30 30 0 1 0 47-37c-62-81-54-107-51-111 3-6 13-9 28-14 20-6 47-14 62-40 25-43 1-106-75-196a30 30 0 0 0-23-11z m-180 0a30 30 0 0 0-23 49c82 98 70 125 69 128-3 6-15 9-27 13-20 6-48 14-63 41-31 55 17 128 56 178a30 30 0 1 0 47-37c-62-81-54-107-51-111 3-6 13-9 28-14 20-6 47-14 62-40 25-43 1-106-75-196a30 30 0 0 0-23-11z m-180 0a30 30 0 0 0-23 49c82 98 70 125 69 128-3 6-15 9-27 13-20 6-48 14-63 41-31 55 17 128 56 178a30 30 0 1 0 47-37c-62-81-54-107-51-111 3-6 13-9 28-14 20-6 47-14 62-40 25-43 1-106-75-196a30 30 0 0 0-23-11z" horiz-adv-x="1000" />

<glyph glyph-name="handlers-bath" unicode="&#xe87b;" d="M791-144h-18a30 30 0 0 0-30 30v60h-510v-60a30 30 0 0 0-30-30h-18a30 30 0 0 0-30 30v69a161 161 0 0 0-52 36c-47 49-46 111-44 131v292h-7a30 30 0 0 0 0 60h900a30 30 0 0 0 0-60h-23v-307a28 28 0 0 0-1-5c-3-20-16-73-64-113a184 184 0 0 0-44-27 31 31 0 0 0 1-4v-72a30 30 0 0 0-30-30z m-601 150h565a129 129 0 0 1 70 29h0c31 26 41 60 44 75v304h-750v-293q0-2-1-3c-1-12-2-54 28-85a103 103 0 0 1 44-27z m564 480a30 30 0 0 0-30 30v54a30 30 0 0 0 60 0v-6h48v192h-48v-6a30 30 0 0 0-60 0v54a30 30 0 0 0 58 12h80a30 30 0 0 0 30-30v-252a30 30 0 0 0-30-30h-80a30 30 0 0 0-28-18z m-486 0a30 30 0 0 0-28 19 30 30 0 0 0-8-1h-90a30 30 0 0 0-30 30v252a30 30 0 0 0 30 30h90a30 30 0 0 0 8-1 30 30 0 0 0 58-11v-54a30 30 0 0 0-60 0v7a30 30 0 0 0-6-1h-60v-192h60a30 30 0 0 0 6-1v7a30 30 0 0 0 60 0v-54a30 30 0 0 0-30-30z" horiz-adv-x="1000" />

<glyph glyph-name="handlers-wc" unicode="&#xe87c;" d="M567-126h-142a30 30 0 0 0-30 30v174a218 218 0 0 0-60 45c-68 73-91 195-58 309a30 30 0 0 0 29 22h23a380 380 0 0 0-24 130c0 59 15 114 44 156 12 17 75 103 170 93 53-5 101-38 137-93h0c27-43 42-97 41-156a407 407 0 0 0-22-130h24a30 30 0 0 0 29-24 407 407 0 0 0 8-102c-4-72-26-135-65-183a266 266 0 0 0-74-63v-178a30 30 0 0 0-30-30z m-112 60h82v120h-82z m38 180h1c68 0 113 48 130 69 58 72 55 167 49 211h-344c-19-88 0-176 50-230a161 161 0 0 1 114-50z m-100 340h218c37 92 35 190-6 253h0c-15 23-46 62-92 67-61 6-106-55-114-67-43-64-45-164-6-253z m421-112a30 30 0 0 0-30 30v54a30 30 0 0 0 60 0v-6h66v192h-66v-6a30 30 0 0 0-60 0v54a30 30 0 0 0 58 12h98a30 30 0 0 0 30-30v-252a30 30 0 0 0-30-30h-98a30 30 0 0 0-28-18z m-630 0a30 30 0 0 0-28 19 30 30 0 0 0-8-1h-90a30 30 0 0 0-30 30v252a30 30 0 0 0 30 30h90a30 30 0 0 0 8-1 30 30 0 0 0 58-11v-54a30 30 0 0 0-60 0v7a30 30 0 0 0-6-1h-60v-192h60a30 30 0 0 0 6-1v7a30 30 0 0 0 60 0v-54a30 30 0 0 0-30-30z" horiz-adv-x="1000" />

<glyph glyph-name="hanger" unicode="&#xe87d;" d="M962 74h-918a30 30 0 0 0-26 44 558 558 0 0 0 442 284c-6 28-4 53 7 75 15 31 42 43 61 52 16 7 25 11 29 20 10 20-3 57-24 68-10 6-26 7-42 1-26-9-47-30-59-58a30 30 0 0 0-56 23c19 44 54 78 95 92 33 11 66 9 92-5 48-27 72-99 48-147-14-29-38-40-58-49-17-8-27-13-32-24-6-11-6-27 1-47 125-4 243-52 343-140 81-70 121-142 123-145a30 30 0 0 0-26-44z m-864 60h807a600 600 0 0 1-79 84c-93 81-199 124-314 126a496 496 0 0 1-414-210z" horiz-adv-x="1000" />

<glyph glyph-name="happy-hours" unicode="&#xe87e;" d="M276-120a251 251 0 0 0-245 201 30 30 0 1 0 58 12 190 190 0 0 1 374 0 30 30 0 1 0 58-12 251 251 0 0 0-245-201z m118 255a30 30 0 0 0-30 30v236a30 30 0 0 0 60 0v-236a30 30 0 0 0-30-30z m-216 0a30 30 0 0 0-30 30v236a30 30 0 0 0 60 0v-236a30 30 0 0 0-30-30z m530 195a254 254 0 0 0-28 2c-22 2-138 20-193 125-23 45-31 96-21 149a270 270 0 0 0 62 127c10 12 107 117 236 82 46-12 88-41 119-81a244 244 0 0 0 35-65l8 12a30 30 0 0 0 50-33l-49-73a30 30 0 0 0-55 16c-3 79-54 147-123 166-39 11-80 4-120-19a237 237 0 0 1-56-45c-43-48-71-134-32-208 40-78 129-92 146-94 83-9 142 39 159 53a30 30 0 0 0 40-44c-19-17-84-70-178-70z m85 196h-97a30 30 0 0 0-30 30v129a30 30 0 1 0 60 0v-99h67a30 30 0 0 0 0-60z" horiz-adv-x="1000" />

<glyph glyph-name="headphones" unicode="&#xe87f;" d="M524-136h-126a30 30 0 0 0-30 30v90a30 30 0 0 0 30 30h126a30 30 0 0 0 30-30v-24h164l39 116a30 30 0 0 0-4 16v448c-12 139-129 247-262 242-126-5-233-111-243-242v-448a30 30 0 0 0-30-30c-38-1-93 5-136 44-40 35-62 93-61 157 2 72 32 138 80 176 24 20 54 33 86 39v63c0 1 0 2 0 3a327 327 0 0 0 96 208c56 55 129 87 205 90 81 3 158-26 220-82a326 326 0 0 0 104-216c0-1 0-2 0-3v-58c30-2 57-9 80-23 55-34 91-108 94-192 2-80-26-148-75-183-19-13-50-27-97-26l-46-138a30 30 0 0 0-28-21h-186v-6a30 30 0 0 0-30-30z m-96 60h66v30h-66z m385 195c32-1 52 7 64 16 32 22 51 72 49 131-2 64-28 119-65 142-14 9-30 13-48 14z m-626 297a128 128 0 0 1-48-23c-34-28-56-78-58-131-1-47 14-87 41-112 19-17 43-24 65-27z" horiz-adv-x="1000" />

<glyph glyph-name="heating" unicode="&#xe880;" d="M938-138h-882c-17 0-30 8-30 19v568c0 11 13 19 30 19h882c17 0 30-8 30-19v-568c0-11-13-19-30-19z m-168 38h138v417h-138z m-235 0h175v417h-174v-413a12 12 0 0 0-1-4z m-233 0h175a12 12 0 0 0-1 4v413h-174z m-216 0h156v417h-156z m684 454h138v76h-139a12 12 0 0 0 1-4z m-234 0h174v72a12 12 0 0 0 1 4h-175z m-234 0h174v76h-174z m-216 0h156v76h-156z m564 138a30 30 0 0 0-15 56c36 21 57 43 57 59 0 16-19 33-38 50-26 23-56 49-51 89 6 50 65 77 109 92a30 30 0 0 0 20-56c-67-24-70-42-70-43-1-8 18-25 32-37 26-24 59-53 58-96 0-39-29-77-87-110a30 30 0 0 0-15-4z m-180 0a30 30 0 0 0-15 56c36 21 57 43 57 59 0 16-19 33-38 50-26 23-56 49-51 89 6 50 65 77 109 92a30 30 0 0 0 20-56c-67-24-70-42-70-43-1-8 18-25 32-37 26-24 59-53 58-96 0-39-29-77-87-110a30 30 0 0 0-15-4z m-180 0a30 30 0 0 0-15 56c36 21 57 43 57 59 0 16-19 33-38 50-26 23-56 49-51 89 6 50 65 77 109 92a30 30 0 0 0 20-56c-67-24-70-42-70-43-1-8 18-25 32-37 26-24 59-53 58-96 0-39-29-77-87-110a30 30 0 0 0-15-4z" horiz-adv-x="1000" />

<glyph glyph-name="heating-blanket" unicode="&#xe881;" d="M940-124h-882a30 30 0 0 0-30 30v890a30 30 0 0 0 30 30h882a30 30 0 0 0 30-30v-890a30 30 0 0 0-30-30z m-852 60h822v830h-822z m578 138a30 30 0 0 0-22 51c67 70 96 128 83 168-6 21-24 34-44 48-25 19-53 40-64 79-18 63 20 138 116 228a30 30 0 0 0 41-44c-76-71-110-129-99-168 5-18 19-30 42-46 23-18 53-40 65-79 12-37 6-80-19-126-17-32-43-65-78-102a30 30 0 0 0-21-9z m-227 0a30 30 0 0 0-22 51c68 70 96 128 84 168-7 21-24 34-45 48-24 19-53 40-64 79-18 63 20 138 117 228a30 30 0 0 0 41-44c-76-71-111-129-100-168 5-18 19-30 42-46 24-18 53-40 66-79 12-37 5-80-20-126-17-32-42-65-77-102a30 30 0 0 0-22-9z m-219 0a30 30 0 0 0-22 51c67 70 96 128 83 168-6 21-24 34-44 48-25 19-53 40-64 79-18 63 20 138 117 228a30 30 0 1 0 41-44c-76-71-111-129-100-168 5-18 19-30 42-46 24-18 53-40 66-79 12-37 5-80-20-126-17-32-42-65-77-102a30 30 0 0 0-22-9z" horiz-adv-x="1000" />

<glyph glyph-name="high-kids-chair" unicode="&#xe882;" d="M792-140a30 30 0 0 0-29 24l-55 265a31 31 0 0 0-6-1h-384l-55-264a30 30 0 0 0-58 12l122 594h-39a30 30 0 0 0-30 30v270a30 30 0 0 0 30 30h450a30 30 0 0 0 30-30v-270a30 30 0 0 0-30-30h-39l122-594a30 30 0 0 0-29-36z m-462 348h366l-58 282h-250z m-12 342h390v210h-390z m195 30q-5 0-10 0a302 302 0 0 0-140 40 30 30 0 1 0 30 52 242 242 0 0 1 112-32 242 242 0 0 1 128 32 30 30 0 0 0 30-52 302 302 0 0 0-150-40z" horiz-adv-x="1000" />

<glyph glyph-name="high-wc" unicode="&#xe883;" d="M405-144h-180a30 30 0 0 0-30 30v176a273 273 0 0 0-76 46c-88 75-116 200-74 318a30 30 0 0 0 28 20h37c-19 43-30 89-30 133 0 62 20 118 57 162 14 17 92 101 206 92 63-5 122-38 166-92 35-44 54-100 54-162 0-44-10-89-29-133h39a30 30 0 0 0 29-22 341 341 0 0 0 9-106c-4-74-33-139-82-188a321 321 0 0 0-94-64v-180a30 30 0 0 0-30-30z m-150 60h120v124h-120z m56 184h1c92 0 152 50 174 72 74 74 69 171 62 214h-453c-24-88-1-178 63-233 58-49 132-53 153-54z m-134 346h291c48 93 46 193-6 257h0c-19 24-61 65-124 70-85 7-144-58-155-70-54-65-56-166-6-257z m693-554a30 30 0 0 0-18 6l-72 54a30 30 0 1 0 36 48l24-18v804a30 30 0 0 0 53 19l72-90a30 30 0 1 0-46-38l-19 24v-779a30 30 0 0 0-30-30z" horiz-adv-x="1000" />

<glyph glyph-name="home-dark" unicode="&#xe884;" d="M42 480a40 40 0 0 0 13 15l401 307a41 41 0 0 0 54 0l430-308a43 43 0 0 0 18-39q2-275 4-549a27 27 0 0 0-8-20c-9-9-22-7-23-7l-268 0a27 27 0 0 0-29 26v308a20 20 0 0 1-6 17 20 20 0 0 1-15 5l-228 2a27 27 0 0 1-13-7 27 27 0 0 1-8-18l0-306a27 27 0 0 0-8-20c-9-9-22-7-23-7l-265 2a34 34 0 0 0-20 11 35 35 0 0 0-8 26q-1 271-2 543a40 40 0 0 0 4 19z" horiz-adv-x="1000" />

<glyph glyph-name="horse" unicode="&#xe885;" d="M785-142h-72a30 30 0 0 0-27 17 683 683 0 0 0-57 194q-3 26-5 52a276 276 0 0 0-230 20c-6-8-12-16-17-23a226 226 0 0 0-64-61l16-166a30 30 0 0 0-30-33h-90a30 30 0 0 0-30 27l-17 179c-18 33-35 66-52 99-33 65-37 77-39 92-4 34 5 73 26 110a250 250 0 0 0 46 59c4 23-4 45-20 53a34 34 0 0 1-28 0c-19-9-32-45-20-89a30 30 0 0 0-58-15c-18 68 4 135 52 158a95 95 0 0 0 80 0c27-13 45-38 52-69 47 20 88 9 128-2 41-11 83-22 143-8 52 13 106 44 154 87-41-3-73-5-95-4-20 1-57 2-64 32-2 8-3 27 21 42a273 273 0 0 0 27 12c23 10 55 24 90 48 47 32 71 63 92 90 25 32 49 62 99 73 55 12 112-5 144-27 21-14 33-32 36-51 3-25-10-50-39-74 18-27 36-60 55-100a30 30 0 0 0-1-28l-36-62a30 30 0 0 0-41-11l-62 36c-28-40-40-77-37-110 1-14 5-25 9-38 6-19 13-42 9-72-6-34-24-65-55-93a847 847 0 0 1 1-126 834 834 0 0 1 35-179 30 30 0 0 0-29-39z m-53 60h13a892 892 0 0 0-26 153 905 905 0 0 0 0 149 30 30 0 0 0 11 21c25 20 40 41 43 63 3 16-1 28-7 45-4 15-9 31-11 51-4 46 11 95 46 145a30 30 0 0 0 35 48l82-47 13 23c-64 131-100 134-107 133-10-1-21-20-38-51-18-33-43-78-87-125-64-68-138-114-213-132-74-18-129-4-172 8-43 11-71 19-107-4-47-30-82-92-76-136 0-5 3-14 33-72 17-35 35-69 53-102a30 30 0 0 0 4-12l15-158h30l-15 152a30 30 0 0 0 17 30 165 165 0 0 1 60 52c16 23 36 51 31 81-6 41-52 59-53 59a30 30 0 0 0 21 56c30-11 82-45 92-105a123 123 0 0 0-2-46 222 222 0 0 1 68-27c57-13 105 0 138 15a704 704 0 0 0 6 78 30 30 0 1 0 60-9 648 648 0 0 1 0-177 626 626 0 0 1 43-159z m102 858a118 118 0 0 1-25-3c-28-6-40-20-65-52-23-28-51-64-105-101-12-9-24-16-35-22 19 1 41 3 69 6a30 30 0 0 0 12-1c21 28 36 55 48 77 23 41 42 77 84 82 28 3 55-8 82-35 13 10 16 17 17 19-2 4-12 14-34 22a147 147 0 0 1-48 8z m82-30z" horiz-adv-x="1000" />

<glyph glyph-name="hot-spring" unicode="&#xe886;" d="M728-146a30 30 0 0 0-25 46c116 186 113 261 102 288-8 19-23 25-48 36-28 11-64 26-82 70-28 66-2 166 79 307a30 30 0 1 0 52-30c-87-151-90-222-76-254 8-20 24-27 50-38 28-11 62-25 80-67 14-33 14-74-1-126-16-58-52-132-105-218a30 30 0 0 0-26-14z m-260 0a30 30 0 0 0-25 46c116 186 113 261 102 288-8 19-23 25-48 36-28 11-64 26-82 70-28 66-2 166 79 307a30 30 0 1 0 52-30c-87-151-89-222-76-254 8-20 24-27 50-38 28-11 62-25 80-67 14-33 14-74-1-126-16-58-52-132-105-218a30 30 0 0 0-26-14z m-260 0a30 30 0 0 0-25 46c116 186 113 261 102 288-8 19-23 25-48 36-28 11-64 26-82 70-28 66-2 166 79 307a30 30 0 1 0 52-30c-87-151-89-222-76-254 8-20 24-27 50-38 28-11 62-25 80-67 14-33 14-74-1-126-16-58-52-132-105-218a30 30 0 0 0-26-14z m653 846a176 176 0 0 0-82 21 131 131 0 0 0-32 24 156 156 0 0 0-37-25 205 205 0 0 0-107-19c-43 4-80 21-106 46a153 153 0 0 0-39-27 205 205 0 0 0-107-19c-40 4-76 19-101 42a118 118 0 0 0-19-16c-26-17-58-26-93-26s-67 9-93 26c-28 19-45 46-45 75a30 30 0 0 0 60 0c0-19 34-41 78-41s78 22 78 41a30 30 0 0 0 59 8c7-25 41-46 82-49 51-5 102 18 112 50a30 30 0 0 0 58-1c7-25 41-46 82-49 51-5 102 18 112 50a30 30 0 0 0 59-5c3-27 50-50 93-45 33 3 62 23 63 43a30 30 0 0 0 60-4c-4-51-53-92-117-99a174 174 0 0 0-18-1z" horiz-adv-x="1000" />

<glyph glyph-name="hypoallergenic" unicode="&#xe887;" d="M439-138c-2 0-4 0-6 0-31 2-59 13-75 31-15 16-22 38-21 64 3 52 37 112 95 164a30 30 0 0 0 39 0c51-43 80-98 81-151 0-32-10-60-30-79-20-18-50-29-83-29z m13 195c-39-41-54-79-55-103 0-9 1-17 5-21 5-5 17-10 33-11 19 0 37 5 46 13 7 7 11 19 11 34-1 28-15 60-40 88z m444-157a30 30 0 0 0-21 8l-828 827a30 30 0 0 0 42 42l828-826a30 30 0 0 0-21-51z m-622 207a69 69 0 0 0-40 12c-41 28-45 90-27 133 13 28 41 47 87 78 20 14 41 27 62 39a30 30 0 0 0 30-52c-20-12-40-24-59-37-39-26-59-40-65-53-9-20-6-50 5-58 7-5 27 2 50 10 32 11 77 26 135 25a340 340 0 0 0 111-21 30 30 0 1 0-21-56 281 281 0 0 1-91 17c-47 1-83-12-115-22-21-8-42-15-62-15z m442 93a30 30 0 0 0-24 48c6 8 13 20 13 35-1 24-20 47-49 60a30 30 0 1 0 23 55c52-22 84-66 85-113 1-32-12-57-24-73a30 30 0 0 0-24-12z m-224 244a30 30 0 0 0-22 51 362 362 0 0 1 75 121 342 342 0 0 1 21 130 30 30 0 0 0 60 2 402 402 0 0 0-25-153 422 422 0 0 0-87-141 30 30 0 0 0-22-10z" horiz-adv-x="1000" />

<glyph glyph-name="hypoallergenic-pillow" unicode="&#xe888;" d="M950-124a31 31 0 0 0-7 1 1797 1797 0 0 1-868 0 30 30 0 0 0-37 34 2695 2695 0 0 1 36 445 2699 2699 0 0 1-36 427 30 30 0 0 0 37 34 1798 1798 0 0 1 443-53 1799 1799 0 0 1 425 53 30 30 0 0 0 36-36 1792 1792 0 0 1 0-868 30 30 0 0 0-29-37z m-845 873a2759 2759 0 0 0 29-393 2758 2758 0 0 0-29-411 1857 1857 0 0 0 805 1 1851 1851 0 0 0 0 802 1859 1859 0 0 0-392-44 1859 1859 0 0 0-413 45z m593-729h-1a30 30 0 0 0-29 31 231 231 0 0 1-16 96 225 225 0 0 1-46 71c-8-6-14-10-17-13h0c-70-47-159-55-229-20-93 47-114 151-124 201-22 112 15 207 39 254a30 30 0 0 0 43 12 447 447 0 0 1 118-51c33-9 58-11 79-13 32-3 60-5 92-27 51-35 84-101 85-169 1-55-21-99-45-130a284 284 0 0 0 61-93 290 290 0 0 0 20-120 30 30 0 0 0-30-29z m-383 564c-17-44-35-111-20-186 9-47 25-125 92-159 61-31 129-11 168 16h0c1 1 2 1 4 3a307 307 0 0 1-69 34 30 30 0 1 0 19 56 364 364 0 0 0 89-44l4-3c16 22 30 53 30 91-1 48-24 95-59 119-19 13-35 15-63 17-23 2-51 5-90 15a503 503 0 0 0-105 41z" horiz-adv-x="1000" />

</font>
</defs>
</svg>
